<svg width="30" height="30" viewBox="0 0 30 30" fill="none" xmlns="http://www.w3.org/2000/svg">
<path d="M25 0H5C2.23833 0 0 2.23833 0 5V25C0 27.7617 2.23833 30 5 30H25C27.7617 30 30 27.7617 30 25V5C30 2.23833 27.7617 0 25 0ZM22.6017 22.6017C21.625 23.5783 20.0417 23.5783 19.0667 22.6017C18.945 22.48 17.1467 20.6817 15.0017 18.5367C12.855 20.6833 11.0567 22.4817 10.9367 22.6017C9.96 23.5783 8.37667 23.5783 7.40167 22.6017C6.425 21.625 6.425 20.0417 7.40167 19.0667C7.52 18.945 9.31833 17.1467 11.465 15C9.31833 12.8533 7.52 11.055 7.4 10.935C6.42333 9.95833 6.42333 8.375 7.4 7.4C8.37667 6.42333 9.96 6.42333 10.935 7.4C11.055 7.52 12.8533 9.31833 15 11.465C17.1467 9.31833 18.945 7.52 19.065 7.4C20.0417 6.42333 21.625 6.42333 22.6 7.4C23.5767 8.37667 23.5767 9.96 22.6 10.935C22.4783 11.0567 20.68 12.855 18.535 15C20.6817 17.1467 22.48 18.945 22.6 19.065C23.5767 20.0417 23.5767 21.625 22.6017 22.6017Z" fill="url(#paint0_linear_3529_1513)"/>
<path d="M25 0.833333C27.2967 0.833333 29.1667 2.70167 29.1667 5V25C29.1667 27.2983 27.2967 29.1667 25 29.1667H5C2.70333 29.1667 0.833333 27.2983 0.833333 25V5C0.833333 2.70167 2.70333 0.833333 5 0.833333H25ZM10.2867 15L6.81 18.4767C5.51 19.7767 5.51 21.8917 6.81 23.19C7.44 23.82 8.27667 24.1667 9.16667 24.1667C10.0567 24.1667 10.8933 23.82 11.5233 23.19L11.7467 22.9667L15 19.7133L17.95 22.6633L18.4767 23.19C19.1067 23.82 19.9433 24.1667 20.8333 24.1667C21.7233 24.1667 22.56 23.82 23.19 23.19C24.49 21.89 24.49 19.775 23.19 18.4767L19.7133 15L22.9433 11.77L23.19 11.525C24.49 10.225 24.49 8.11 23.19 6.81167C22.56 6.18 21.7233 5.83333 20.8333 5.83333C19.9433 5.83333 19.1067 6.18 18.4767 6.81L15 10.2867L11.77 7.05667L11.5233 6.81C10.8933 6.18 10.0567 5.83333 9.16667 5.83333C8.27667 5.83333 7.44 6.18 6.81 6.81C5.51 8.11 5.51 10.225 6.81 11.5233L10.2867 15ZM25 0H5C2.23833 0 0 2.23833 0 5V25C0 27.7617 2.23833 30 5 30H25C27.7617 30 30 27.7617 30 25V5C30 2.23833 27.7617 0 25 0ZM9.16667 23.3333C8.52667 23.3333 7.88667 23.09 7.39833 22.6017C6.42167 21.625 6.42167 20.0417 7.39833 19.0667C7.52 18.945 9.31833 17.1467 11.465 15C9.31833 12.8533 7.52 11.055 7.4 10.935C6.42333 9.95833 6.42333 8.375 7.4 7.4C7.88667 6.91 8.52667 6.66667 9.16667 6.66667C9.80667 6.66667 10.4467 6.91 10.935 7.39833C11.055 7.52 12.8533 9.31833 15 11.465C17.1467 9.31833 18.945 7.52 19.065 7.4C19.5533 6.91 20.1933 6.66667 20.8333 6.66667C21.4733 6.66667 22.1133 6.91 22.6017 7.39833C23.5783 8.375 23.5783 9.95833 22.6017 10.9333C22.48 11.055 20.6817 12.8533 18.5367 14.9983C20.6833 17.145 22.4817 18.9433 22.6017 19.0633C23.5783 20.04 23.5783 21.6233 22.6017 22.5983C22.1133 23.0883 21.4733 23.3333 20.8333 23.3333C20.1933 23.3333 19.5533 23.09 19.065 22.6017C18.9433 22.48 17.145 20.6817 15 18.5367C12.8533 20.6833 11.055 22.4817 10.935 22.6017C10.4467 23.09 9.80667 23.3333 9.16667 23.3333Z" fill="url(#paint1_linear_3529_1513)"/>
<defs>
<linearGradient id="paint0_linear_3529_1513" x1="1.4645" y1="1.4645" x2="28.5355" y2="28.5355" gradientUnits="userSpaceOnUse">
<stop stop-color="white" stop-opacity="0.6"/>
<stop offset="1" stop-color="white" stop-opacity="0.3"/>
</linearGradient>
<linearGradient id="paint1_linear_3529_1513" x1="1.4645" y1="1.4645" x2="28.5355" y2="28.5355" gradientUnits="userSpaceOnUse">
<stop stop-color="white" stop-opacity="0.6"/>
<stop offset="0.4927" stop-color="white" stop-opacity="0"/>
<stop offset="0.9971" stop-color="white" stop-opacity="0.3"/>
</linearGradient>
</defs>
</svg>
