<svg width="20" height="20" viewBox="0 0 20 20" fill="none" xmlns="http://www.w3.org/2000/svg">
<path d="M17.5 4.16666C17.5 3.24582 16.7542 2.49999 15.8333 2.49999C15.6883 2.49999 14.6892 2.49999 13.3333 2.49999C13.3333 2.03999 12.96 1.66666 12.5 1.66666H7.5C7.04 1.66666 6.66667 2.03999 6.66667 2.49999C5.31083 2.49999 4.31167 2.49999 4.16667 2.49999C3.24583 2.49999 2.5 3.24582 2.5 4.16666C2.5 4.81499 2.87417 5.36999 3.41417 5.64582L4.72667 16.1433C4.8825 17.3942 5.94583 18.3333 7.20667 18.3333H12.7925C14.0533 18.3333 15.1167 17.3942 15.2733 16.1433L16.5858 5.64582C17.1258 5.36999 17.5 4.81499 17.5 4.16666Z" fill="url(#paint0_linear_301_1585)"/>
<path d="M12.5 2.08332C12.73 2.08332 12.9167 2.26999 12.9167 2.49999V2.91666H13.3333H15.8333C16.5225 2.91666 17.0833 3.47749 17.0833 4.16666C17.0833 4.63416 16.82 5.05832 16.3967 5.27499L16.2 5.37499L16.1725 5.59416L14.86 16.0917C14.73 17.1317 13.8408 17.9167 12.7925 17.9167H7.20667C6.15833 17.9167 5.26917 17.1325 5.13917 16.0917L3.8275 5.59416L3.8 5.37499L3.60333 5.27499C3.18 5.05832 2.91667 4.63416 2.91667 4.16666C2.91667 3.47749 3.4775 2.91666 4.16667 2.91666H6.66667H7.08333V2.49999C7.08333 2.26999 7.27 2.08332 7.5 2.08332H12.5ZM12.5 1.66666H7.5C7.04 1.66666 6.66667 2.03999 6.66667 2.49999C5.31083 2.49999 4.31167 2.49999 4.16667 2.49999C3.24583 2.49999 2.5 3.24582 2.5 4.16666C2.5 4.81499 2.87417 5.36999 3.41417 5.64582L4.72667 16.1433C4.8825 17.3942 5.94583 18.3333 7.20667 18.3333H12.7925C14.0533 18.3333 15.1167 17.3942 15.2733 16.1433L16.5858 5.64582C17.1258 5.36999 17.5 4.81499 17.5 4.16666C17.5 3.24582 16.7542 2.49999 15.8333 2.49999C15.6883 2.49999 14.6892 2.49999 13.3333 2.49999C13.3333 2.03999 12.96 1.66666 12.5 1.66666Z" fill="url(#paint1_linear_301_1585)"/>
<path d="M15.8333 2.49999C15.6883 2.49999 14.6892 2.49999 13.3333 2.49999C13.3333 2.03999 12.96 1.66666 12.5 1.66666H7.5C7.04 1.66666 6.66667 2.03999 6.66667 2.49999C5.31083 2.49999 4.31167 2.49999 4.16667 2.49999C3.24583 2.49999 2.5 3.24582 2.5 4.16666C2.5 5.08749 3.24583 5.83332 4.16667 5.83332C4.6675 5.83332 15.3325 5.83332 15.8333 5.83332C16.7542 5.83332 17.5 5.08749 17.5 4.16666C17.5 3.24582 16.7542 2.49999 15.8333 2.49999Z" fill="url(#paint2_linear_301_1585)"/>
<defs>
<linearGradient id="paint0_linear_301_1585" x1="3.45358" y1="2.52266" x2="16.5464" y2="15.6155" gradientUnits="userSpaceOnUse">
<stop stop-color="white" stop-opacity="0.6"/>
<stop offset="1" stop-color="white" stop-opacity="0.3"/>
</linearGradient>
<linearGradient id="paint1_linear_301_1585" x1="3.45358" y1="2.52266" x2="16.5464" y2="15.6155" gradientUnits="userSpaceOnUse">
<stop stop-color="white" stop-opacity="0.6"/>
<stop offset="0.4927" stop-color="white" stop-opacity="0"/>
<stop offset="0.9971" stop-color="white" stop-opacity="0.3"/>
</linearGradient>
<linearGradient id="paint2_linear_301_1585" x1="5.90483" y1="0.0714897" x2="14.0952" y2="8.26182" gradientUnits="userSpaceOnUse">
<stop stop-color="white" stop-opacity="0.7"/>
<stop offset="0.5188" stop-color="white" stop-opacity="0.45"/>
<stop offset="0.9998" stop-color="white" stop-opacity="0.55"/>
</linearGradient>
</defs>
</svg>
