<svg width="20" height="20" viewBox="0 0 20 20" fill="none" xmlns="http://www.w3.org/2000/svg">
<path d="M16.6758 3.32418C15.5774 2.22584 13.7966 2.22584 12.6983 3.32418L3.5066 12.4983C3.25494 12.75 3.08744 13.0725 3.0266 13.4233L2.5141 16.3958C2.40327 17.0392 2.96244 17.5975 3.60577 17.4858L6.54327 16.975C6.8916 16.9142 7.21327 16.7475 7.46327 16.4975L16.6758 7.30084C17.7749 6.20251 17.7749 4.42251 16.6758 3.32418Z" fill="url(#paint0_linear_301_1466)"/>
<path d="M14.6875 2.91667C15.3275 2.91667 15.9292 3.16583 16.3817 3.61833C16.8342 4.07083 17.0834 4.6725 17.0834 5.3125C17.0834 5.9525 16.8342 6.55417 16.3817 7.00667L7.1692 16.2025C6.97836 16.3925 6.73753 16.5175 6.4717 16.5642L3.5342 17.075C3.50253 17.0808 3.4717 17.0833 3.44086 17.0833C3.28753 17.0833 3.1417 17.0142 3.04003 16.895C2.93836 16.775 2.89753 16.6225 2.9242 16.4667L3.4367 13.4942C3.48253 13.2267 3.60836 12.985 3.80003 12.7933L12.9925 3.61833C13.4459 3.16583 14.0475 2.91667 14.6875 2.91667ZM14.6875 2.5C13.9675 2.5 13.2484 2.775 12.6984 3.32417L3.5067 12.4983C3.25503 12.75 3.08753 13.0725 3.0267 13.4233L2.5142 16.3958C2.41253 16.9833 2.87086 17.5 3.44086 17.5C3.49503 17.5 3.55003 17.495 3.60586 17.4858L6.54337 16.975C6.8917 16.9142 7.21337 16.7475 7.46337 16.4975L16.6759 7.30083C17.7742 6.2025 17.7742 4.42167 16.6759 3.32333C16.1267 2.77417 15.4075 2.5 14.6875 2.5Z" fill="url(#paint1_linear_301_1466)"/>
<path d="M16.5266 7.45L14.8733 9.09834L10.8958 5.12084L12.5491 3.4725L16.5266 7.45ZM2.5141 16.3958C2.40327 17.0392 2.96244 17.5975 3.60577 17.4858L5.41494 17.1708L2.8266 14.5833L2.5141 16.3958Z" fill="url(#paint2_linear_301_1466)"/>
<defs>
<linearGradient id="paint0_linear_301_1466" x1="7.72902" y1="8.27609" x2="11.7151" y2="12.2623" gradientUnits="userSpaceOnUse">
<stop stop-color="white" stop-opacity="0.6"/>
<stop offset="1" stop-color="white" stop-opacity="0.3"/>
</linearGradient>
<linearGradient id="paint1_linear_301_1466" x1="2.50003" y1="10" x2="17.5" y2="10" gradientUnits="userSpaceOnUse">
<stop stop-color="white" stop-opacity="0.6"/>
<stop offset="0.4927" stop-color="white" stop-opacity="0"/>
<stop offset="0.9971" stop-color="white" stop-opacity="0.3"/>
</linearGradient>
<linearGradient id="paint2_linear_301_1466" x1="6.6656" y1="9.3505" x2="10.6457" y2="13.3306" gradientUnits="userSpaceOnUse">
<stop stop-color="white" stop-opacity="0.7"/>
<stop offset="0.5188" stop-color="white" stop-opacity="0.45"/>
<stop offset="0.9998" stop-color="white" stop-opacity="0.55"/>
</linearGradient>
</defs>
</svg>
