<svg width="20" height="20" viewBox="0 0 20 20" fill="none" xmlns="http://www.w3.org/2000/svg">
<path d="M15 17.5H5C3.61917 17.5 2.5 16.3808 2.5 15V5C2.5 3.61917 3.61917 2.5 5 2.5H15C16.3808 2.5 17.5 3.61917 17.5 5V15C17.5 16.3808 16.3808 17.5 15 17.5Z" fill="url(#paint0_linear_301_1577)"/>
<path d="M15 2.91667C16.1492 2.91667 17.0833 3.85083 17.0833 5V15C17.0833 16.1492 16.1492 17.0833 15 17.0833H5C3.85083 17.0833 2.91667 16.1492 2.91667 15V5C2.91667 3.85083 3.85083 2.91667 5 2.91667H15ZM15 2.5H5C3.61917 2.5 2.5 3.61917 2.5 5V15C2.5 16.3808 3.61917 17.5 5 17.5H15C16.3808 17.5 17.5 16.3808 17.5 15V5C17.5 3.61917 16.3808 2.5 15 2.5Z" fill="url(#paint1_linear_301_1577)"/>
<path d="M13.4424 10H11.6665V2.85084C11.6665 1.93001 10.9207 1.18417 9.99988 1.18417C9.07904 1.18417 8.33321 1.93001 8.33321 2.85084V10H6.55738C5.91488 10 5.59154 10.775 6.04404 11.2317L9.25738 14.4758C9.66655 14.8883 10.3332 14.8883 10.7424 14.4758L13.9557 11.2317C14.4082 10.775 14.0849 10 13.4424 10Z" fill="url(#paint2_linear_301_1577)"/>
<defs>
<linearGradient id="paint0_linear_301_1577" x1="3.23225" y1="3.23225" x2="16.7677" y2="16.7677" gradientUnits="userSpaceOnUse">
<stop stop-color="white" stop-opacity="0.6"/>
<stop offset="1" stop-color="white" stop-opacity="0.3"/>
</linearGradient>
<linearGradient id="paint1_linear_301_1577" x1="3.23225" y1="3.23225" x2="16.7677" y2="16.7677" gradientUnits="userSpaceOnUse">
<stop stop-color="white" stop-opacity="0.6"/>
<stop offset="0.4927" stop-color="white" stop-opacity="0"/>
<stop offset="0.9971" stop-color="white" stop-opacity="0.3"/>
</linearGradient>
<linearGradient id="paint2_linear_301_1577" x1="6.31871" y1="4.17492" x2="13.681" y2="11.5372" gradientUnits="userSpaceOnUse">
<stop stop-color="white" stop-opacity="0.7"/>
<stop offset="0.5188" stop-color="white" stop-opacity="0.45"/>
<stop offset="0.9998" stop-color="white" stop-opacity="0.55"/>
</linearGradient>
</defs>
</svg>
