<svg width="20" height="20" viewBox="0 0 20 20" fill="none" xmlns="http://www.w3.org/2000/svg">
<path d="M9.99967 0.833313C6.31801 0.833313 3.33301 3.81831 3.33301 7.49998C3.33301 9.72915 4.43051 11.6966 6.11051 12.9075L6.64634 15L7.01801 16.4533C7.30134 17.5591 8.29801 18.3333 9.43967 18.3333H10.5588C11.7005 18.3333 12.698 17.5591 12.9805 16.4533L13.353 15L13.8888 12.9075C15.5688 11.6966 16.6663 9.72915 16.6663 7.49998C16.6663 3.81831 13.6813 0.833313 9.99967 0.833313Z" fill="url(#paint0_linear_301_1553)"/>
<path d="M9.99967 1.24998C13.4463 1.24998 16.2497 4.05331 16.2497 7.49998C16.2497 9.49915 15.2755 11.3941 13.6447 12.5691L13.5222 12.6575L13.4847 12.8041L12.9488 14.8966L12.5772 16.35C12.3413 17.2725 11.5113 17.9166 10.5588 17.9166H9.43967C8.48801 17.9166 7.65801 17.2725 7.42217 16.35L7.05051 14.8966L6.51467 12.8041L6.47717 12.6575L6.35467 12.5691C4.72384 11.3941 3.74967 9.49915 3.74967 7.49998C3.74967 4.05331 6.55301 1.24998 9.99967 1.24998ZM9.99967 0.833313C6.31801 0.833313 3.33301 3.81831 3.33301 7.49998C3.33301 9.72915 4.43051 11.6966 6.11051 12.9075L6.64634 15L7.01801 16.4533C7.30134 17.5591 8.29801 18.3333 9.43967 18.3333H10.5588C11.7005 18.3333 12.698 17.5591 12.9805 16.4533L13.353 15L13.8888 12.9075C15.5688 11.6966 16.6663 9.72915 16.6663 7.49998C16.6663 3.81831 13.6813 0.833313 9.99967 0.833313Z" fill="url(#paint1_linear_301_1553)"/>
<path d="M12.9807 16.4533L13.3532 15H6.64648L7.01815 16.4533C7.30148 17.5592 8.29815 18.3333 9.43982 18.3333H10.559C11.7015 18.3333 12.6982 17.5592 12.9807 16.4533Z" fill="url(#paint2_linear_301_1553)"/>
<defs>
<linearGradient id="paint0_linear_301_1553" x1="4.53559" y1="3.53598" x2="15.4638" y2="14.4641" gradientUnits="userSpaceOnUse">
<stop stop-color="white" stop-opacity="0.6"/>
<stop offset="1" stop-color="white" stop-opacity="0.3"/>
</linearGradient>
<linearGradient id="paint1_linear_301_1553" x1="4.53559" y1="3.53598" x2="15.4638" y2="14.4641" gradientUnits="userSpaceOnUse">
<stop stop-color="white" stop-opacity="0.6"/>
<stop offset="0.4927" stop-color="white" stop-opacity="0"/>
<stop offset="0.9971" stop-color="white" stop-opacity="0.3"/>
</linearGradient>
<linearGradient id="paint2_linear_301_1553" x1="7.92948" y1="13.7172" x2="12.0702" y2="17.8579" gradientUnits="userSpaceOnUse">
<stop stop-color="white" stop-opacity="0.7"/>
<stop offset="0.5188" stop-color="white" stop-opacity="0.45"/>
<stop offset="0.9998" stop-color="white" stop-opacity="0.55"/>
</linearGradient>
</defs>
</svg>
