<svg width="20" height="20" viewBox="0 0 20 20" fill="none" xmlns="http://www.w3.org/2000/svg">
<path d="M15.8337 3.33334H4.16699C2.78616 3.33334 1.66699 4.45251 1.66699 5.83334V14.1667C1.66699 15.5475 2.78616 16.6667 4.16699 16.6667H15.8337C17.2145 16.6667 18.3337 15.5475 18.3337 14.1667V5.83334C18.3337 4.45251 17.2145 3.33334 15.8337 3.33334Z" fill="url(#paint0_linear_301_1508)"/>
<path d="M15.8337 3.75001C16.982 3.75001 17.917 4.68418 17.917 5.83334V14.1667C17.917 15.3158 16.982 16.25 15.8337 16.25H4.16699C3.01866 16.25 2.08366 15.3158 2.08366 14.1667V5.83334C2.08366 4.68418 3.01866 3.75001 4.16699 3.75001H15.8337ZM15.8337 3.33334H4.16699C2.78616 3.33334 1.66699 4.45251 1.66699 5.83334V14.1667C1.66699 15.5475 2.78616 16.6667 4.16699 16.6667H15.8337C17.2145 16.6667 18.3337 15.5475 18.3337 14.1667V5.83334C18.3337 4.45251 17.2145 3.33334 15.8337 3.33334Z" fill="url(#paint1_linear_301_1508)"/>
<path d="M11.7153 9.80418C10.6595 10.4375 9.34116 10.4375 8.28533 9.80418L1.66699 5.83334V14.1667C1.66699 15.5475 2.78616 16.6667 4.16699 16.6667H15.8337C17.2145 16.6667 18.3337 15.5475 18.3337 14.1667V5.83334L11.7153 9.80418Z" fill="url(#paint2_linear_301_1508)"/>
<defs>
<linearGradient id="paint0_linear_301_1508" x1="3.23258" y1="3.23226" x2="16.7681" y2="16.7678" gradientUnits="userSpaceOnUse">
<stop stop-color="white" stop-opacity="0.6"/>
<stop offset="1" stop-color="white" stop-opacity="0.3"/>
</linearGradient>
<linearGradient id="paint1_linear_301_1508" x1="3.23258" y1="3.23226" x2="16.7681" y2="16.7678" gradientUnits="userSpaceOnUse">
<stop stop-color="white" stop-opacity="0.6"/>
<stop offset="0.4927" stop-color="white" stop-opacity="0"/>
<stop offset="0.9971" stop-color="white" stop-opacity="0.3"/>
</linearGradient>
<linearGradient id="paint2_linear_301_1508" x1="3.49141" y1="4.00893" x2="16.5092" y2="17.0267" gradientUnits="userSpaceOnUse">
<stop stop-color="white" stop-opacity="0.7"/>
<stop offset="0.5188" stop-color="white" stop-opacity="0.45"/>
<stop offset="0.9998" stop-color="white" stop-opacity="0.55"/>
</linearGradient>
</defs>
</svg>
