<svg width="20" height="20" viewBox="0 0 20 20" fill="none" xmlns="http://www.w3.org/2000/svg">
<path d="M3.33301 15.8333V4.16666C3.33301 2.78582 4.45217 1.66666 5.83301 1.66666H11.6663L16.6663 6.66666V15.8333C16.6663 17.2142 15.5472 18.3333 14.1663 18.3333H5.83301C4.45217 18.3333 3.33301 17.2142 3.33301 15.8333Z" fill="url(#paint0_linear_301_1454)"/>
<path d="M11.4938 2.08332L16.2497 6.83916V15.8333C16.2497 16.9825 15.3147 17.9167 14.1663 17.9167H5.83301C4.68467 17.9167 3.74967 16.9825 3.74967 15.8333V4.16666C3.74967 3.01749 4.68467 2.08332 5.83301 2.08332H11.4938ZM11.6663 1.66666H5.83301C4.45217 1.66666 3.33301 2.78582 3.33301 4.16666V15.8333C3.33301 17.2142 4.45217 18.3333 5.83301 18.3333H14.1663C15.5472 18.3333 16.6663 17.2142 16.6663 15.8333V6.66666L11.6663 1.66666Z" fill="url(#paint1_linear_301_1454)"/>
<path d="M11.667 4.99999V1.66666L16.667 6.66666H13.3337C12.4128 6.66666 11.667 5.92082 11.667 4.99999Z" fill="url(#paint2_linear_301_1454)"/>
<path d="M12.5003 10.8333H7.50033C7.03949 10.8333 6.66699 10.46 6.66699 9.99999C6.66699 9.53999 7.03949 9.16666 7.50033 9.16666H12.5003C12.9612 9.16666 13.3337 9.53999 13.3337 9.99999C13.3337 10.46 12.9612 10.8333 12.5003 10.8333Z" fill="url(#paint3_linear_301_1454)"/>
<path d="M10.8337 14.1667H7.50033C7.03949 14.1667 6.66699 13.7933 6.66699 13.3333C6.66699 12.8733 7.03949 12.5 7.50033 12.5H10.8337C11.2945 12.5 11.667 12.8733 11.667 13.3333C11.667 13.7933 11.2945 14.1667 10.8337 14.1667Z" fill="url(#paint4_linear_301_1454)"/>
<defs>
<linearGradient id="paint0_linear_301_1454" x1="2.34801" y1="4.11607" x2="15.8836" y2="17.6517" gradientUnits="userSpaceOnUse">
<stop stop-color="white" stop-opacity="0.6"/>
<stop offset="1" stop-color="white" stop-opacity="0.3"/>
</linearGradient>
<linearGradient id="paint1_linear_301_1454" x1="2.34801" y1="4.11607" x2="15.8836" y2="17.6517" gradientUnits="userSpaceOnUse">
<stop stop-color="white" stop-opacity="0.6"/>
<stop offset="0.4927" stop-color="white" stop-opacity="0"/>
<stop offset="0.9971" stop-color="white" stop-opacity="0.3"/>
</linearGradient>
<linearGradient id="paint2_linear_301_1454" x1="10.6611" y1="2.67257" x2="15.6611" y2="7.67257" gradientUnits="userSpaceOnUse">
<stop stop-color="white" stop-opacity="0.7"/>
<stop offset="0.5188" stop-color="white" stop-opacity="0.45"/>
<stop offset="0.9998" stop-color="white" stop-opacity="0.55"/>
</linearGradient>
<linearGradient id="paint3_linear_301_1454" x1="8.16099" y1="8.16066" x2="11.8397" y2="11.8393" gradientUnits="userSpaceOnUse">
<stop stop-color="white" stop-opacity="0.7"/>
<stop offset="0.5188" stop-color="white" stop-opacity="0.45"/>
<stop offset="0.9998" stop-color="white" stop-opacity="0.55"/>
</linearGradient>
<linearGradient id="paint4_linear_301_1454" x1="7.74433" y1="11.9107" x2="10.5897" y2="14.756" gradientUnits="userSpaceOnUse">
<stop stop-color="white" stop-opacity="0.7"/>
<stop offset="0.5188" stop-color="white" stop-opacity="0.45"/>
<stop offset="0.9998" stop-color="white" stop-opacity="0.55"/>
</linearGradient>
</defs>
</svg>
