<svg width="20" height="20" viewBox="0 0 20 20" fill="none" xmlns="http://www.w3.org/2000/svg">
<path d="M7.50041 8.71999C7.78291 8.55666 8.10791 8.54332 8.38957 8.65166C8.62457 8.74249 8.89291 8.66749 9.05291 8.47249C9.33791 8.12499 9.56707 7.73166 9.72791 7.30416C9.82041 7.05916 9.73291 6.79082 9.53291 6.62166C9.30957 6.43249 9.16707 6.14999 9.16707 5.83332C9.16707 5.51666 9.30957 5.23416 9.53374 5.04499C9.73291 4.87582 9.82041 4.60749 9.72874 4.36249C9.56707 3.93499 9.33791 3.54082 9.05374 3.19416C8.89374 2.99999 8.62541 2.92499 8.39041 3.01499C8.10791 3.12332 7.78291 3.10916 7.50041 2.94666C7.21707 2.78332 7.04207 2.50666 6.99624 2.20666C6.95874 1.96166 6.76457 1.76582 6.51957 1.72499C6.29707 1.68666 6.06791 1.66666 5.83374 1.66666C5.59957 1.66666 5.37041 1.68666 5.14791 1.72499C4.90291 1.76582 4.70874 1.96166 4.67124 2.20666C4.62541 2.50666 4.45041 2.78332 4.16707 2.94666C3.88457 3.10916 3.55957 3.12332 3.27791 3.01499C3.04291 2.92416 2.77374 2.99916 2.61457 3.19332C2.32957 3.54082 2.10041 3.93499 1.93874 4.36249C1.84707 4.60666 1.93457 4.87582 2.13374 5.04499C2.35791 5.23416 2.50041 5.51666 2.50041 5.83332C2.50041 6.14999 2.35791 6.43249 2.13374 6.62166C1.93457 6.79082 1.84707 7.05999 1.93874 7.30416C2.10041 7.73166 2.32957 8.12582 2.61374 8.47249C2.77374 8.66666 3.04207 8.74166 3.27707 8.65166C3.55874 8.54332 3.88457 8.55666 4.16624 8.71999C4.44957 8.88332 4.62457 9.15999 4.67041 9.45916C4.70791 9.70416 4.90207 9.89999 5.14624 9.94166C5.37041 9.97999 5.59957 9.99999 5.83374 9.99999C6.06791 9.99999 6.29707 9.97999 6.51957 9.94166C6.76374 9.89999 6.95791 9.70416 6.99541 9.45916C7.04207 9.15999 7.21707 8.88332 7.50041 8.71999Z" fill="url(#paint0_linear_301_1507)"/>
<path d="M5.83374 2.08332C6.03874 2.08332 6.24624 2.10082 6.45041 2.13582C6.51791 2.14749 6.57457 2.20416 6.58457 2.27082C6.65207 2.70916 6.90957 3.08749 7.29207 3.30832C7.51207 3.43499 7.76207 3.50249 8.01457 3.50249C8.19457 3.50249 8.37124 3.46916 8.53957 3.40416C8.55707 3.39749 8.57624 3.39416 8.59541 3.39416C8.64707 3.39416 8.69791 3.41832 8.73124 3.45916C8.99041 3.77499 9.19457 4.12916 9.33874 4.51082C9.37124 4.59749 9.31957 4.68166 9.26457 4.72832C8.93791 5.00332 8.75041 5.40666 8.75041 5.83332C8.75041 6.25999 8.93791 6.66332 9.26457 6.93999C9.31874 6.98582 9.37124 7.07082 9.33874 7.15749C9.19457 7.53916 8.99041 7.89249 8.73124 8.20916C8.69791 8.24999 8.64707 8.27416 8.59624 8.27416C8.57707 8.27416 8.55791 8.27082 8.54041 8.26416C8.37207 8.19916 8.19457 8.16582 8.01541 8.16582C7.76291 8.16582 7.51291 8.23332 7.29291 8.35999C6.91041 8.58082 6.65207 8.95916 6.58541 9.39749C6.57541 9.46416 6.51874 9.52082 6.45124 9.53249C6.24624 9.56582 6.03874 9.58332 5.83374 9.58332C5.62874 9.58332 5.42124 9.56582 5.21707 9.53082C5.14957 9.51916 5.09291 9.46249 5.08291 9.39582C5.01541 8.95749 4.75791 8.57916 4.37541 8.35832C4.15541 8.23249 3.90541 8.16499 3.65291 8.16499C3.47291 8.16499 3.29624 8.19832 3.12791 8.26332C3.10957 8.26999 3.09124 8.27332 3.07207 8.27332C3.02041 8.27332 2.96957 8.24916 2.93707 8.20832C2.67707 7.89249 2.47291 7.53916 2.32874 7.15749C2.29624 7.07082 2.34874 6.98582 2.40291 6.93999C2.72957 6.66332 2.91707 6.25999 2.91707 5.83332C2.91707 5.40666 2.72957 5.00332 2.40291 4.72666C2.34874 4.68082 2.29624 4.59582 2.32874 4.50916C2.47291 4.12749 2.67707 3.77416 2.93624 3.45832C2.96957 3.41749 3.02041 3.39332 3.07124 3.39332C3.09041 3.39332 3.10957 3.39666 3.12707 3.40332C3.29541 3.46832 3.47207 3.50166 3.65207 3.50166C3.90457 3.50166 4.15457 3.43416 4.37457 3.30749C4.75791 3.08666 5.01624 2.70832 5.08291 2.26999C5.09291 2.20332 5.14957 2.14666 5.21707 2.13499C5.42124 2.10082 5.62874 2.08332 5.83374 2.08332ZM5.83374 1.66666C5.59957 1.66666 5.37041 1.68666 5.14791 1.72499C4.90291 1.76582 4.70874 1.96166 4.67124 2.20666C4.62541 2.50666 4.45041 2.78332 4.16707 2.94666C4.00457 3.04082 3.82707 3.08499 3.65291 3.08499C3.52457 3.08499 3.39707 3.06082 3.27791 3.01499C3.21124 2.98916 3.14124 2.97666 3.07207 2.97666C2.89874 2.97666 2.72874 3.05499 2.61457 3.19416C2.32957 3.54082 2.10041 3.93499 1.93874 4.36249C1.84707 4.60666 1.93457 4.87582 2.13374 5.04499C2.35791 5.23416 2.50041 5.51666 2.50041 5.83332C2.50041 6.14999 2.35791 6.43249 2.13374 6.62166C1.93457 6.79082 1.84707 7.05999 1.93874 7.30416C2.10041 7.73166 2.32957 8.12582 2.61374 8.47249C2.72791 8.61166 2.89791 8.68999 3.07124 8.68999C3.14041 8.68999 3.20957 8.67749 3.27707 8.65166C3.39624 8.60582 3.52374 8.58166 3.65207 8.58166C3.82707 8.58166 4.00374 8.62582 4.16624 8.71999C4.44957 8.88332 4.62457 9.15999 4.67041 9.45916C4.70791 9.70416 4.90207 9.89999 5.14624 9.94166C5.37041 9.97999 5.59957 9.99999 5.83374 9.99999C6.06791 9.99999 6.29707 9.97999 6.51957 9.94166C6.76374 9.89999 6.95791 9.70416 6.99541 9.45916C7.04207 9.15999 7.21707 8.88332 7.50041 8.71999C7.66291 8.62582 7.83957 8.58166 8.01457 8.58166C8.14291 8.58166 8.27041 8.60582 8.38957 8.65166C8.45624 8.67749 8.52624 8.68999 8.59541 8.68999C8.76874 8.68999 8.93874 8.61166 9.05291 8.47249C9.33791 8.12499 9.56707 7.73166 9.72791 7.30416C9.82041 7.05916 9.73291 6.79082 9.53291 6.62166C9.30957 6.43249 9.16707 6.14999 9.16707 5.83332C9.16707 5.51666 9.30957 5.23416 9.53374 5.04499C9.73291 4.87582 9.82041 4.60749 9.72874 4.36249C9.56707 3.93499 9.33791 3.54082 9.05374 3.19416C8.93957 3.05499 8.76957 2.97666 8.59624 2.97666C8.52707 2.97666 8.45791 2.98916 8.39041 3.01499C8.27124 3.06082 8.14374 3.08499 8.01541 3.08499C7.84041 3.08499 7.66374 3.04082 7.50124 2.94666C7.21707 2.78332 7.04207 2.50666 6.99624 2.20666C6.95874 1.96166 6.76457 1.76582 6.51957 1.72499C6.29707 1.68666 6.06791 1.66666 5.83374 1.66666Z" fill="url(#paint1_linear_301_1507)"/>
<path d="M5.83366 4.16666C4.91283 4.16666 4.16699 4.91249 4.16699 5.83332C4.16699 6.75416 4.91283 7.49999 5.83366 7.49999C6.75449 7.49999 7.50033 6.75416 7.50033 5.83332C7.50033 4.91249 6.75449 4.16666 5.83366 4.16666Z" fill="url(#paint2_linear_301_1507)"/>
<path d="M14.6665 16.6692C15.0332 16.4575 15.4565 16.4392 15.8232 16.5808C16.1282 16.6983 16.4782 16.6008 16.6857 16.3483C17.0557 15.8975 17.354 15.385 17.5632 14.8292C17.6832 14.5108 17.5699 14.1617 17.3099 13.9425C17.0182 13.6958 16.8332 13.3292 16.8332 12.9175C16.8332 12.505 17.0182 12.1392 17.3099 11.8925C17.569 11.6725 17.6832 11.3233 17.5632 11.0058C17.3532 10.45 17.0557 9.9375 16.6857 9.48667C16.4782 9.23333 16.129 9.13667 15.8232 9.25417C15.4565 9.39583 15.034 9.3775 14.6665 9.16583C14.2982 8.95333 14.0707 8.59417 14.0107 8.20417C13.9615 7.88583 13.7099 7.63083 13.3915 7.57667C13.1015 7.52583 12.804 7.5 12.4999 7.5C12.1957 7.5 11.8982 7.52583 11.6082 7.575C11.2907 7.62917 11.0382 7.88333 10.989 8.2025C10.929 8.59167 10.7015 8.95083 10.3332 9.16417C9.96655 9.37583 9.54322 9.39417 9.17655 9.2525C8.87155 9.135 8.52155 9.2325 8.31405 9.485C7.94405 9.93583 7.64571 10.4483 7.43655 11.0042C7.31655 11.3225 7.42988 11.6717 7.68988 11.8908C7.98155 12.1383 8.16655 12.5042 8.16655 12.9167C8.16655 13.3292 7.98155 13.695 7.68988 13.9417C7.43071 14.1617 7.31655 14.5108 7.43655 14.8283C7.64655 15.3842 7.94405 15.8967 8.31405 16.3475C8.52155 16.6008 8.87072 16.6975 9.17655 16.58C9.54322 16.4383 9.96571 16.4567 10.3332 16.6683C10.7015 16.8808 10.929 17.24 10.989 17.63C11.0382 17.9483 11.2899 18.2033 11.6082 18.2575C11.8982 18.3075 12.1957 18.3333 12.4999 18.3333C12.804 18.3333 13.1015 18.3075 13.3915 18.2583C13.709 18.2042 13.9615 17.95 14.0107 17.6308C14.0707 17.2417 14.2982 16.8817 14.6665 16.6692Z" fill="url(#paint3_linear_301_1507)"/>
<path d="M12.4999 7.91667C12.7732 7.91667 13.0499 7.94 13.3224 7.98583C13.464 8.01 13.5774 8.125 13.599 8.265C13.6807 8.79667 13.994 9.25583 14.4582 9.52417C14.7249 9.67833 15.0282 9.76 15.3349 9.76C15.5532 9.76 15.7682 9.72 15.9724 9.64083C16.0099 9.62667 16.049 9.61917 16.0899 9.61917C16.194 9.61917 16.2957 9.6675 16.3624 9.74917C16.7082 10.1708 16.9807 10.6425 17.1724 11.1508C17.2265 11.2933 17.174 11.4592 17.0399 11.5725C16.644 11.9092 16.4165 12.3992 16.4165 12.9167C16.4165 13.4342 16.644 13.9242 17.0407 14.26C17.1749 14.3742 17.2274 14.5392 17.1732 14.6817C16.9815 15.1908 16.709 15.6625 16.3632 16.0833C16.2965 16.165 16.1949 16.2133 16.0907 16.2133C16.0499 16.2133 16.0107 16.2058 15.9732 16.1917C15.7682 16.1125 15.554 16.0725 15.3357 16.0725C15.029 16.0725 14.7257 16.1542 14.459 16.3083C13.9949 16.5767 13.6815 17.035 13.5999 17.5675C13.5782 17.7083 13.464 17.8233 13.3232 17.8467C13.0499 17.8933 12.7732 17.9167 12.4999 17.9167C12.2265 17.9167 11.9499 17.8933 11.6774 17.8475C11.5357 17.8233 11.4224 17.7083 11.4007 17.5683C11.319 17.0358 11.0057 16.5775 10.5415 16.3092C10.2749 16.155 9.97155 16.0733 9.66488 16.0733C9.44655 16.0733 9.23155 16.1133 9.02738 16.1925C8.98988 16.2067 8.95072 16.2142 8.90988 16.2142C8.80572 16.2142 8.70405 16.1658 8.63738 16.0842C8.29155 15.6625 8.01905 15.1908 7.82738 14.6825C7.77321 14.54 7.82571 14.3742 7.95988 14.2608C8.35655 13.925 8.58405 13.435 8.58405 12.9175C8.58405 12.4 8.35655 11.91 7.95988 11.5742C7.82571 11.46 7.77321 11.295 7.82738 11.1525C8.01905 10.6433 8.29155 10.1717 8.63738 9.75083C8.70405 9.66917 8.80572 9.62083 8.90988 9.62083C8.95072 9.62083 8.98988 9.62833 9.02738 9.6425C9.23238 9.72167 9.44655 9.76167 9.66488 9.76167C9.97155 9.76167 10.2749 9.68 10.5415 9.52583C11.0057 9.2575 11.319 8.79917 11.4007 8.26667C11.4224 8.12583 11.5365 8.01083 11.6774 7.9875C11.9499 7.94 12.2265 7.91667 12.4999 7.91667ZM12.4999 7.5C12.1957 7.5 11.8982 7.52583 11.6082 7.575C11.2899 7.62917 11.0382 7.88333 10.989 8.2025C10.929 8.59167 10.7015 8.95083 10.3332 9.16417C10.1215 9.28583 9.89155 9.34417 9.66488 9.34417C9.49738 9.34417 9.33238 9.3125 9.17655 9.25333C9.08988 9.22 8.99905 9.20333 8.90905 9.20333C8.68321 9.20333 8.46238 9.305 8.31405 9.48583C7.94405 9.93667 7.64571 10.4492 7.43655 11.005C7.31655 11.3233 7.42988 11.6725 7.68988 11.8917C7.98155 12.1383 8.16655 12.5042 8.16655 12.9167C8.16655 13.3292 7.98155 13.695 7.68988 13.9417C7.43071 14.1617 7.31655 14.5108 7.43655 14.8283C7.64655 15.3842 7.94405 15.8967 8.31405 16.3475C8.46238 16.5283 8.68321 16.63 8.90905 16.63C8.99905 16.63 9.08905 16.6142 9.17655 16.58C9.33155 16.52 9.49738 16.4892 9.66488 16.4892C9.89155 16.4892 10.1215 16.5467 10.3332 16.6692C10.7015 16.8817 10.929 17.2408 10.989 17.6308C11.0382 17.9492 11.2899 18.2042 11.6082 18.2583C11.8982 18.3075 12.1957 18.3333 12.4999 18.3333C12.804 18.3333 13.1015 18.3075 13.3915 18.2583C13.7099 18.2042 13.9615 17.95 14.0107 17.6308C14.0707 17.2417 14.2982 16.8817 14.6665 16.6692C14.8782 16.5475 15.1082 16.4892 15.3349 16.4892C15.5024 16.4892 15.6674 16.5208 15.8232 16.58C15.9099 16.6133 16.0007 16.63 16.0907 16.63C16.3165 16.63 16.5374 16.5283 16.6857 16.3475C17.0557 15.8967 17.354 15.3842 17.5632 14.8283C17.6832 14.51 17.5699 14.1608 17.3099 13.9417C17.0182 13.695 16.8332 13.3283 16.8332 12.9167C16.8332 12.5042 17.0182 12.1383 17.3099 11.8917C17.569 11.6717 17.6832 11.3225 17.5632 11.005C17.3532 10.4492 17.0557 9.93667 16.6857 9.48583C16.5374 9.305 16.3165 9.20333 16.0907 9.20333C16.0007 9.20333 15.9107 9.21917 15.8232 9.25333C15.6682 9.31333 15.5024 9.34417 15.3349 9.34417C15.1082 9.34417 14.8782 9.28667 14.6665 9.16417C14.2982 8.95167 14.0707 8.5925 14.0107 8.2025C13.9615 7.88417 13.7099 7.62917 13.3915 7.575C13.1015 7.52583 12.804 7.5 12.4999 7.5Z" fill="url(#paint4_linear_301_1507)"/>
<path d="M12.5003 10.8333C11.3495 10.8333 10.417 11.7658 10.417 12.9167C10.417 14.0675 11.3495 15 12.5003 15C13.6512 15 14.5837 14.0675 14.5837 12.9167C14.5837 11.7658 13.6512 10.8333 12.5003 10.8333Z" fill="url(#paint5_linear_301_1507)"/>
<defs>
<linearGradient id="paint0_linear_301_1507" x1="2.90224" y1="2.90182" x2="8.76524" y2="8.76482" gradientUnits="userSpaceOnUse">
<stop stop-color="white" stop-opacity="0.6"/>
<stop offset="1" stop-color="white" stop-opacity="0.3"/>
</linearGradient>
<linearGradient id="paint1_linear_301_1507" x1="2.90224" y1="2.90182" x2="8.76524" y2="8.76482" gradientUnits="userSpaceOnUse">
<stop stop-color="white" stop-opacity="0.6"/>
<stop offset="0.4927" stop-color="white" stop-opacity="0"/>
<stop offset="0.9971" stop-color="white" stop-opacity="0.3"/>
</linearGradient>
<linearGradient id="paint2_linear_301_1507" x1="4.65516" y1="4.65482" x2="7.01216" y2="7.01182" gradientUnits="userSpaceOnUse">
<stop stop-color="white" stop-opacity="0.7"/>
<stop offset="0.5188" stop-color="white" stop-opacity="0.45"/>
<stop offset="0.9998" stop-color="white" stop-opacity="0.55"/>
</linearGradient>
<linearGradient id="paint3_linear_301_1507" x1="8.68888" y1="9.10567" x2="16.3109" y2="16.7277" gradientUnits="userSpaceOnUse">
<stop stop-color="white" stop-opacity="0.6"/>
<stop offset="1" stop-color="white" stop-opacity="0.3"/>
</linearGradient>
<linearGradient id="paint4_linear_301_1507" x1="8.68888" y1="9.10567" x2="16.3109" y2="16.7277" gradientUnits="userSpaceOnUse">
<stop stop-color="white" stop-opacity="0.6"/>
<stop offset="0.4927" stop-color="white" stop-opacity="0"/>
<stop offset="0.9971" stop-color="white" stop-opacity="0.3"/>
</linearGradient>
<linearGradient id="paint5_linear_301_1507" x1="11.0272" y1="11.4435" x2="13.9735" y2="14.3898" gradientUnits="userSpaceOnUse">
<stop stop-color="white" stop-opacity="0.7"/>
<stop offset="0.5188" stop-color="white" stop-opacity="0.45"/>
<stop offset="0.9998" stop-color="white" stop-opacity="0.55"/>
</linearGradient>
</defs>
</svg>
