<svg width="20" height="20" viewBox="0 0 20 20" fill="none" xmlns="http://www.w3.org/2000/svg">
<path d="M17.601 5.73251C16.6243 4.75584 15.0418 4.75584 14.0652 5.73251C13.7502 6.04834 11.6077 8.19084 10.0002 9.79751C8.39268 8.19001 6.25018 6.04751 5.93435 5.73168C4.95768 4.75501 3.37518 4.75501 2.39852 5.73168C1.42185 6.70834 1.42185 8.29084 2.39852 9.26751C2.88685 9.75584 7.74352 14.6125 8.23185 15.1008C9.15352 16.0225 10.6085 16.0625 11.591 15.245C11.6493 15.1967 11.7127 15.1558 11.7677 15.1008C12.256 14.6125 17.1127 9.75584 17.601 9.26751C18.5777 8.29168 18.5777 6.70834 17.601 5.73251Z" fill="url(#paint0_linear_301_1615)"/>
<path d="M4.16699 5.41667C4.72366 5.41667 5.24699 5.63333 5.64033 6.02667L9.70616 10.0925L10.0003 10.3875L10.2953 10.0925L14.3612 6.02667C14.7537 5.63333 15.277 5.41667 15.8337 5.41667C16.3903 5.41667 16.9137 5.63333 17.307 6.02667C18.1195 6.83917 18.1195 8.16083 17.307 8.97333L12.6512 13.6292L11.4737 14.8067C11.452 14.8283 11.4278 14.845 11.4045 14.8633C11.3778 14.8833 11.3512 14.9042 11.3253 14.9258C10.9495 15.2392 10.4737 15.4117 9.98533 15.4117C9.43449 15.4117 8.91699 15.1975 8.52699 14.8075L2.69366 8.97417C2.30033 8.58 2.08366 8.05667 2.08366 7.5C2.08366 6.94333 2.30033 6.42 2.69366 6.02667C3.08699 5.63333 3.61033 5.41667 4.16699 5.41667ZM4.16699 5C3.52699 5 2.88699 5.24417 2.39949 5.7325C1.42283 6.70917 1.42283 8.29167 2.39949 9.26833C2.88783 9.75667 7.74449 14.6133 8.23283 15.1017C8.71782 15.5867 9.35116 15.8275 9.98533 15.8275C10.5553 15.8275 11.127 15.6325 11.592 15.245C11.6503 15.1967 11.7137 15.1558 11.7687 15.1008C12.257 14.6125 17.1137 9.75583 17.602 9.2675C18.5787 8.29083 18.5787 6.70833 17.602 5.73167C17.1137 5.24417 16.4737 5 15.8337 5C15.1937 5 14.5537 5.24417 14.0662 5.7325C13.7503 6.04833 11.6078 8.19083 10.0003 9.7975C8.39283 8.19 6.25033 6.0475 5.93449 5.73167C5.44699 5.24417 4.80699 5 4.16699 5Z" fill="url(#paint1_linear_301_1615)"/>
<defs>
<linearGradient id="paint0_linear_301_1615" x1="5.31577" y1="2.81551" x2="14.6847" y2="12.1844" gradientUnits="userSpaceOnUse">
<stop stop-color="white" stop-opacity="0.6"/>
<stop offset="1" stop-color="white" stop-opacity="0.3"/>
</linearGradient>
<linearGradient id="paint1_linear_301_1615" x1="5.31591" y1="2.8155" x2="14.6848" y2="12.1844" gradientUnits="userSpaceOnUse">
<stop stop-color="white" stop-opacity="0.6"/>
<stop offset="0.4927" stop-color="white" stop-opacity="0"/>
<stop offset="0.9971" stop-color="white" stop-opacity="0.3"/>
</linearGradient>
</defs>
</svg>
