<svg width="50" height="50" viewBox="0 0 50 50" fill="none" xmlns="http://www.w3.org/2000/svg">
<path d="M45.8334 25C45.8334 27.3021 43.9688 29.1667 41.6668 29.1667H8.33342C6.03133 29.1667 4.16675 27.3021 4.16675 25C4.16675 22.6979 6.03133 20.8333 8.33342 20.8333H41.6668C43.9688 20.8333 45.8334 22.6979 45.8334 25ZM8.33342 14.5833H41.6668C43.9688 14.5833 45.8334 12.7188 45.8334 10.4167C45.8334 8.11458 43.9688 6.25 41.6668 6.25H8.33342C6.03133 6.25 4.16675 8.11458 4.16675 10.4167C4.16675 12.7188 6.03133 14.5833 8.33342 14.5833ZM41.6668 35.4167H8.33342C6.03133 35.4167 4.16675 37.2812 4.16675 39.5833C4.16675 41.8854 6.03133 43.75 8.33342 43.75H41.6668C43.9688 43.75 45.8334 41.8854 45.8334 39.5833C45.8334 37.2812 43.9688 35.4167 41.6668 35.4167Z" fill="url(#paint0_linear_3949_9184)"/>
<path d="M41.6668 7.29167C43.3897 7.29167 44.7918 8.69375 44.7918 10.4167C44.7918 12.1396 43.3897 13.5417 41.6668 13.5417H8.33342C6.6105 13.5417 5.20841 12.1396 5.20841 10.4167C5.20841 8.69375 6.6105 7.29167 8.33342 7.29167H41.6668ZM41.6668 21.875C43.3897 21.875 44.7918 23.2771 44.7918 25C44.7918 26.7229 43.3897 28.125 41.6668 28.125H8.33342C6.6105 28.125 5.20841 26.7229 5.20841 25C5.20841 23.2771 6.6105 21.875 8.33342 21.875H41.6668ZM41.6668 36.4583C43.3897 36.4583 44.7918 37.8604 44.7918 39.5833C44.7918 41.3062 43.3897 42.7083 41.6668 42.7083H8.33342C6.6105 42.7083 5.20841 41.3062 5.20841 39.5833C5.20841 37.8604 6.6105 36.4583 8.33342 36.4583H41.6668ZM41.6668 6.25H8.33342C6.03133 6.25 4.16675 8.11458 4.16675 10.4167C4.16675 12.7188 6.03133 14.5833 8.33342 14.5833H41.6668C43.9688 14.5833 45.8334 12.7188 45.8334 10.4167C45.8334 8.11458 43.9688 6.25 41.6668 6.25ZM41.6668 20.8333H8.33342C6.03133 20.8333 4.16675 22.6979 4.16675 25C4.16675 27.3021 6.03133 29.1667 8.33342 29.1667H41.6668C43.9688 29.1667 45.8334 27.3021 45.8334 25C45.8334 22.6979 43.9688 20.8333 41.6668 20.8333ZM41.6668 35.4167H8.33342C6.03133 35.4167 4.16675 37.2812 4.16675 39.5833C4.16675 41.8854 6.03133 43.75 8.33342 43.75H41.6668C43.9688 43.75 45.8334 41.8854 45.8334 39.5833C45.8334 37.2812 43.9688 35.4167 41.6668 35.4167Z" fill="url(#paint1_linear_3949_9184)"/>
<defs>
<linearGradient id="paint0_linear_3949_9184" x1="6.42883" y1="6.42875" x2="43.5713" y2="43.5713" gradientUnits="userSpaceOnUse">
<stop stop-color="white" stop-opacity="0.6"/>
<stop offset="1" stop-color="white" stop-opacity="0.3"/>
</linearGradient>
<linearGradient id="paint1_linear_3949_9184" x1="6.42883" y1="6.42875" x2="43.5713" y2="43.5713" gradientUnits="userSpaceOnUse">
<stop stop-color="white" stop-opacity="0.6"/>
<stop offset="0.4927" stop-color="white" stop-opacity="0"/>
<stop offset="0.9971" stop-color="white" stop-opacity="0.3"/>
</linearGradient>
</defs>
</svg>
