<svg width="20" height="20" viewBox="0 0 20 20" fill="none" xmlns="http://www.w3.org/2000/svg">
<path d="M10.2022 10C11.8097 8.3925 13.9522 6.25 14.268 5.93417C15.2447 4.9575 15.2447 3.375 14.268 2.39833C13.2914 1.42167 11.7089 1.42167 10.7322 2.39833C10.2439 2.88667 5.3872 7.74333 4.89887 8.23167C4.7772 8.35333 4.6697 8.485 4.57887 8.62417C4.0297 9.45583 4.0297 10.5433 4.57887 11.375C4.67053 11.5133 4.7772 11.645 4.89887 11.7675C5.3872 12.2558 10.2439 17.1125 10.7322 17.6008C11.7089 18.5775 13.2914 18.5775 14.268 17.6008C15.2447 16.6242 15.2447 15.0417 14.268 14.065C13.9514 13.75 11.8089 11.6075 10.2022 10Z" fill="url(#paint0_linear_301_1441)"/>
<path d="M12.4997 2.08332C13.0564 2.08332 13.5797 2.29999 13.973 2.69332C14.3664 3.08666 14.583 3.60999 14.583 4.16666C14.583 4.72332 14.3664 5.24666 13.973 5.63999L9.9072 9.70582L9.61303 9.99999L9.90803 10.295L13.9739 14.3608C14.3664 14.7533 14.583 15.2767 14.583 15.8333C14.583 16.39 14.3664 16.9133 13.973 17.3067C13.5797 17.7 13.0564 17.9167 12.4997 17.9167C11.943 17.9167 11.4197 17.7 11.0264 17.3067L5.97637 12.2567L5.19303 11.4733C5.09303 11.3733 5.00303 11.2633 4.92553 11.1458C4.46553 10.45 4.46553 9.54999 4.92553 8.85416C5.00303 8.73749 5.09303 8.62666 5.19303 8.52666L11.0264 2.69332C11.4197 2.29999 11.943 2.08332 12.4997 2.08332ZM12.4997 1.66666C11.8597 1.66666 11.2197 1.91082 10.7322 2.39916C10.2439 2.88749 5.3872 7.74416 4.89887 8.23249C4.7772 8.35416 4.6697 8.48582 4.57887 8.62499C4.0297 9.45666 4.0297 10.5442 4.57887 11.3758C4.67053 11.5142 4.7772 11.6458 4.89887 11.7683C5.3872 12.2567 10.2439 17.1133 10.7322 17.6017C11.2197 18.0892 11.8597 18.3333 12.4997 18.3333C13.1397 18.3333 13.7797 18.0892 14.2672 17.6008C15.2439 16.6242 15.2439 15.0417 14.2672 14.065C13.9514 13.7492 11.8089 11.6067 10.2014 9.99916C11.8089 8.39166 13.9514 6.24916 14.2672 5.93332C15.2439 4.95666 15.2439 3.37416 14.2672 2.39749C13.7797 1.91082 13.1397 1.66666 12.4997 1.66666Z" fill="url(#paint1_linear_301_1441)"/>
<defs>
<linearGradient id="paint0_linear_301_1441" x1="7.81528" y1="5.31558" x2="17.1841" y2="14.6844" gradientUnits="userSpaceOnUse">
<stop stop-color="white" stop-opacity="0.6"/>
<stop offset="1" stop-color="white" stop-opacity="0.3"/>
</linearGradient>
<linearGradient id="paint1_linear_301_1441" x1="7.81528" y1="5.31557" x2="17.1841" y2="14.6844" gradientUnits="userSpaceOnUse">
<stop stop-color="white" stop-opacity="0.6"/>
<stop offset="0.4927" stop-color="white" stop-opacity="0"/>
<stop offset="0.9971" stop-color="white" stop-opacity="0.3"/>
</linearGradient>
</defs>
</svg>
