<svg width="20" height="20" viewBox="0 0 20 20" fill="none" xmlns="http://www.w3.org/2000/svg">
<path d="M15.8333 8.33333C15.6017 8.33333 13.7942 8.33333 11.6667 8.33333C11.6667 6.20583 11.6667 4.39833 11.6667 4.16667C11.6667 3.24583 10.9208 2.5 10 2.5C9.07917 2.5 8.33333 3.24583 8.33333 4.16667C8.33333 4.39833 8.33333 6.20583 8.33333 8.33333C6.20583 8.33333 4.39833 8.33333 4.16667 8.33333C3.24583 8.33333 2.5 9.07917 2.5 10C2.5 10.9208 3.24583 11.6667 4.16667 11.6667C4.23417 11.6667 6.1075 11.6667 8.33333 11.6667C8.33333 13.7942 8.33333 15.6017 8.33333 15.8333C8.33333 16.7542 9.07917 17.5 10 17.5C10.9208 17.5 11.6667 16.7542 11.6667 15.8333C11.6667 15.6017 11.6667 13.7942 11.6667 11.6667C13.8925 11.6667 15.7658 11.6667 15.8333 11.6667C16.7542 11.6667 17.5 10.9208 17.5 10C17.5 9.07917 16.7542 8.33333 15.8333 8.33333Z" fill="url(#paint0_linear_301_1514)"/>
<path d="M10 2.91667C10.6892 2.91667 11.25 3.4775 11.25 4.16667V8.33333V8.75H11.6667H15.8333C16.5225 8.75 17.0833 9.31083 17.0833 10C17.0833 10.6892 16.5225 11.25 15.8333 11.25H11.6667H11.25V11.6667V15.8333C11.25 16.5225 10.6892 17.0833 10 17.0833C9.31083 17.0833 8.75 16.5225 8.75 15.8333V11.6667V11.25H8.33333H4.16667C3.4775 11.25 2.91667 10.6892 2.91667 10C2.91667 9.31083 3.4775 8.75 4.16667 8.75H8.33333H8.75V8.33333V4.16667C8.75 3.4775 9.31083 2.91667 10 2.91667ZM10 2.5C9.07917 2.5 8.33333 3.24583 8.33333 4.16667C8.33333 4.39833 8.33333 6.20583 8.33333 8.33333C6.20583 8.33333 4.39833 8.33333 4.16667 8.33333C3.24583 8.33333 2.5 9.07917 2.5 10C2.5 10.9208 3.24583 11.6667 4.16667 11.6667C4.23417 11.6667 6.1075 11.6667 8.33333 11.6667C8.33333 13.7942 8.33333 15.6017 8.33333 15.8333C8.33333 16.7542 9.07917 17.5 10 17.5C10.9208 17.5 11.6667 16.7542 11.6667 15.8333C11.6667 15.6017 11.6667 13.7942 11.6667 11.6667C13.8925 11.6667 15.7658 11.6667 15.8333 11.6667C16.7542 11.6667 17.5 10.9208 17.5 10C17.5 9.07917 16.7542 8.33333 15.8333 8.33333C15.6017 8.33333 13.7942 8.33333 11.6667 8.33333C11.6667 6.20583 11.6667 4.39833 11.6667 4.16667C11.6667 3.24583 10.9208 2.5 10 2.5Z" fill="url(#paint1_linear_301_1514)"/>
<defs>
<linearGradient id="paint0_linear_301_1514" x1="5.90483" y1="5.90483" x2="14.0952" y2="14.0952" gradientUnits="userSpaceOnUse">
<stop stop-color="white" stop-opacity="0.6"/>
<stop offset="1" stop-color="white" stop-opacity="0.3"/>
</linearGradient>
<linearGradient id="paint1_linear_301_1514" x1="2.5" y1="10" x2="17.5" y2="10" gradientUnits="userSpaceOnUse">
<stop stop-color="white" stop-opacity="0.6"/>
<stop offset="0.4927" stop-color="white" stop-opacity="0"/>
<stop offset="0.9971" stop-color="white" stop-opacity="0.3"/>
</linearGradient>
</defs>
</svg>
