<svg width="20" height="20" viewBox="0 0 20 20" fill="none" xmlns="http://www.w3.org/2000/svg">
<path d="M18.5567 3.94331C17.7433 3.12998 16.4242 3.12998 15.61 3.94331L7.49999 12.0533L4.38999 8.94331C3.57665 8.12998 2.25749 8.12998 1.44332 8.94331C0.629154 9.75665 0.629987 11.0758 1.44332 11.89L5.31415 15.7608C6.52165 16.9683 8.47832 16.9683 9.68582 15.7608L18.5567 6.88998C19.37 6.07581 19.37 4.75665 18.5567 3.94331Z" fill="url(#paint0_linear_301_1590)"/>
<path d="M17.083 3.74998C17.528 3.74998 17.9463 3.92331 18.2613 4.23831C18.5763 4.55331 18.7497 4.97165 18.7497 5.41665C18.7497 5.86165 18.5763 6.27998 18.2613 6.59498L9.39051 15.4658C8.88551 15.9708 8.21384 16.2491 7.49967 16.2491C6.78551 16.2491 6.11384 15.9708 5.60884 15.4658L1.73801 11.595C1.42301 11.28 1.24967 10.8616 1.24967 10.4166C1.24967 9.97165 1.42301 9.55331 1.73801 9.23831C2.05301 8.92331 2.47134 8.74998 2.91634 8.74998C3.36134 8.74998 3.77967 8.92331 4.09467 9.23831L7.20467 12.3483L7.49967 12.6433L7.79467 12.3483L15.9047 4.23831C16.2197 3.92331 16.638 3.74998 17.083 3.74998ZM17.083 3.33331C16.5497 3.33331 16.0163 3.53665 15.6097 3.94331L7.49967 12.0533L4.38967 8.94331C3.98301 8.53665 3.44967 8.33331 2.91634 8.33331C2.38301 8.33331 1.84967 8.53665 1.44301 8.94331C0.629674 9.75665 0.629674 11.0758 1.44301 11.89L5.31384 15.7608C5.91717 16.3641 6.70884 16.6658 7.49967 16.6658C8.29051 16.6658 9.08217 16.3641 9.68551 15.7608L18.5563 6.88998C19.3697 6.07665 19.3697 4.75748 18.5563 3.94331C18.1497 3.53665 17.6163 3.33331 17.083 3.33331Z" fill="url(#paint1_linear_301_1590)"/>
<defs>
<linearGradient id="paint0_linear_301_1590" x1="6.23515" y1="4.15181" x2="13.7648" y2="11.6815" gradientUnits="userSpaceOnUse">
<stop stop-color="white" stop-opacity="0.6"/>
<stop offset="1" stop-color="white" stop-opacity="0.3"/>
</linearGradient>
<linearGradient id="paint1_linear_301_1590" x1="6.23484" y1="4.15181" x2="13.7645" y2="11.6815" gradientUnits="userSpaceOnUse">
<stop stop-color="white" stop-opacity="0.6"/>
<stop offset="0.4927" stop-color="white" stop-opacity="0"/>
<stop offset="0.9971" stop-color="white" stop-opacity="0.3"/>
</linearGradient>
</defs>
</svg>
