<svg width="20" height="20" viewBox="0 0 20 20" fill="none" xmlns="http://www.w3.org/2000/svg">
<path d="M15.4215 8.62417C15.3299 8.48583 15.2232 8.35417 15.1015 8.23167C14.6132 7.74333 9.75652 2.88667 9.26819 2.39833C8.29152 1.42167 6.70902 1.42167 5.73236 2.39833C4.75569 3.375 4.75569 4.9575 5.73236 5.93417C6.04819 6.25 8.19069 8.3925 9.79736 10C8.18986 11.6075 6.04736 13.75 5.73152 14.0658C4.75486 15.0425 4.75486 16.625 5.73152 17.6017C6.70819 18.5783 8.29069 18.5783 9.26736 17.6017C9.75569 17.1133 14.6124 12.2567 15.1007 11.7683C15.2224 11.6467 15.3299 11.515 15.4207 11.3758C15.9707 10.5442 15.9707 9.45583 15.4215 8.62417Z" fill="url(#paint0_linear_301_1560)"/>
<path d="M7.49986 2.08335C8.05652 2.08335 8.57986 2.30002 8.97319 2.69335L14.8065 8.52669C14.9065 8.62669 14.9965 8.73669 15.074 8.85419C15.534 9.55002 15.534 10.45 15.074 11.1459C14.9965 11.2625 14.9065 11.3734 14.8065 11.4734L14.0232 12.2567L8.97319 17.3067C8.57986 17.7 8.05652 17.9167 7.49986 17.9167C6.94319 17.9167 6.41986 17.7 6.02652 17.3067C5.63319 16.9134 5.41652 16.39 5.41652 15.8334C5.41652 15.2767 5.63319 14.7534 6.02652 14.36L10.0924 10.2942L10.3865 10L10.0915 9.70502L6.02652 5.64002C5.63319 5.24669 5.41652 4.72335 5.41652 4.16669C5.41652 3.61002 5.63319 3.08669 6.02652 2.69335C6.41986 2.30002 6.94319 2.08335 7.49986 2.08335ZM7.49986 1.66669C6.85986 1.66669 6.21986 1.91085 5.73236 2.39919C4.75569 3.37585 4.75569 4.95835 5.73236 5.93502C6.04819 6.25002 8.19069 8.39252 9.79736 10C8.18986 11.6075 6.04736 13.75 5.73152 14.0659C4.75486 15.0425 4.75486 16.625 5.73152 17.6017C6.21986 18.0892 6.85986 18.3334 7.49986 18.3334C8.13986 18.3334 8.77986 18.0892 9.26736 17.6009C9.75569 17.1125 14.6124 12.2559 15.1007 11.7675C15.2224 11.6459 15.3299 11.5142 15.4207 11.375C15.9699 10.5434 15.9699 9.45585 15.4207 8.62419C15.329 8.48585 15.2224 8.35419 15.1007 8.23169C14.6124 7.74335 9.75569 2.88669 9.26736 2.39835C8.77986 1.91085 8.13986 1.66669 7.49986 1.66669Z" fill="url(#paint1_linear_301_1560)"/>
<defs>
<linearGradient id="paint0_linear_301_1560" x1="2.81544" y1="5.31558" x2="12.1843" y2="14.6844" gradientUnits="userSpaceOnUse">
<stop stop-color="white" stop-opacity="0.6"/>
<stop offset="1" stop-color="white" stop-opacity="0.3"/>
</linearGradient>
<linearGradient id="paint1_linear_301_1560" x1="2.81544" y1="5.3156" x2="12.1843" y2="14.6844" gradientUnits="userSpaceOnUse">
<stop stop-color="white" stop-opacity="0.6"/>
<stop offset="0.4927" stop-color="white" stop-opacity="0"/>
<stop offset="0.9971" stop-color="white" stop-opacity="0.3"/>
</linearGradient>
</defs>
</svg>
