<svg width="28" height="29" viewBox="0 0 28 29" fill="none" xmlns="http://www.w3.org/2000/svg">
<path d="M12.124 7.10683C11.9354 7.23183 11.7558 7.37729 11.5888 7.5432C10.9229 8.20911 4.30015 14.8318 3.63424 15.4977C2.30242 16.8296 2.30242 18.9875 3.63424 20.3193C4.96606 21.6512 7.12401 21.6512 8.45583 20.3193C8.88651 19.8887 11.8081 16.9671 14.0001 14.7762C16.1922 16.9682 19.1138 19.8898 19.5445 20.3205C20.8763 21.6523 23.0342 21.6523 24.3661 20.3205C25.6979 18.9887 25.6979 16.8307 24.3661 15.4989C23.7001 14.833 17.0774 8.21024 16.4115 7.54433C16.2456 7.37842 16.0661 7.23184 15.8763 7.10797C14.7422 6.35797 13.2581 6.35797 12.124 7.10683Z" fill="url(#paint0_linear_3501_1210)"/>
<path d="M3.20466 17.9091C3.20466 17.15 3.50011 16.4364 4.03647 15.9L11.991 7.94547C12.1274 7.80911 12.2774 7.68638 12.4376 7.5807C13.3865 6.95342 14.6137 6.95342 15.5626 7.5807C15.7217 7.68638 15.8728 7.80911 16.0092 7.94547L17.0774 9.01365L23.9637 15.9C24.5001 16.4364 24.7956 17.15 24.7956 17.9091C24.7956 18.6682 24.5001 19.3818 23.9637 19.9182C23.4274 20.4546 22.7137 20.75 21.9547 20.75C21.1956 20.75 20.4819 20.4546 19.9456 19.9182L14.4012 14.3739L14.0001 13.9727L13.5978 14.375L8.05466 19.9182C7.51829 20.4546 6.80466 20.75 6.04557 20.75C5.28647 20.75 4.57284 20.4546 4.03647 19.9182C3.50011 19.3818 3.20466 18.6682 3.20466 17.9091ZM2.63647 17.9091C2.63647 18.7818 2.96943 19.6546 3.63534 20.3193C4.96716 21.6512 7.12511 21.6512 8.45693 20.3193C8.88648 19.8887 11.8081 16.9671 14.0001 14.7762C16.1922 16.9682 19.1137 19.8898 19.5444 20.3205C20.8762 21.6523 23.0342 21.6523 24.366 20.3205C25.0308 19.6546 25.3638 18.7818 25.3638 17.9091C25.3638 17.0364 25.0308 16.1637 24.3649 15.4989C23.699 14.833 17.0762 8.21024 16.4103 7.54433C16.2444 7.37842 16.0649 7.23184 15.8751 7.10797C14.741 6.35911 13.2581 6.35911 12.124 7.10797C11.9353 7.23297 11.7558 7.37842 11.5887 7.54433C10.9228 8.21024 4.30011 14.833 3.6342 15.4989C2.96943 16.1637 2.63647 17.0364 2.63647 17.9091Z" fill="url(#paint1_linear_3501_1210)"/>
<defs>
<linearGradient id="paint0_linear_3501_1210" x1="7.61231" y1="24.2969" x2="20.388" y2="11.5213" gradientUnits="userSpaceOnUse">
<stop stop-color="white" stop-opacity="0.6"/>
<stop offset="1" stop-color="white" stop-opacity="0.3"/>
</linearGradient>
<linearGradient id="paint1_linear_3501_1210" x1="7.61227" y1="24.2969" x2="20.388" y2="11.5213" gradientUnits="userSpaceOnUse">
<stop stop-color="white" stop-opacity="0.6"/>
<stop offset="0.4927" stop-color="white" stop-opacity="0"/>
<stop offset="0.9971" stop-color="white" stop-opacity="0.3"/>
</linearGradient>
</defs>
</svg>
