<svg width="20" height="20" viewBox="0 0 20 20" fill="none" xmlns="http://www.w3.org/2000/svg">
<path fill-rule="evenodd" clip-rule="evenodd" d="M12.2639 17.4921C12.3192 17.4986 12.3989 17.5019 12.5031 17.5019H7.50311C7.64634 17.5019 7.75376 17.497 7.82537 17.4872C7.89699 17.4775 7.9686 17.4352 8.04022 17.3603C8.11183 17.2854 8.14764 17.1764 8.14764 17.0331C8.14764 17.0136 8.14601 16.7923 8.14276 16.3691C8.1395 15.9459 8.13787 15.6106 8.13787 15.3632L7.91326 15.4023C7.77003 15.4283 7.58937 15.4397 7.37127 15.4365C7.15317 15.4332 6.92694 15.4104 6.69256 15.3681C6.45819 15.3258 6.24009 15.2281 6.03826 15.0751C5.83644 14.9221 5.69321 14.7219 5.60858 14.4745L5.51092 14.2499C5.44582 14.1002 5.34328 13.9342 5.2033 13.7519C5.06333 13.5696 4.92173 13.4459 4.7785 13.3808L4.71014 13.332C4.66457 13.2994 4.62225 13.2603 4.58319 13.2148C4.54412 13.1692 4.51483 13.1236 4.49529 13.0781C4.47576 13.0325 4.49204 12.995 4.54412 12.9658C4.59621 12.9365 4.69061 12.9218 4.82733 12.9218L5.02264 12.9511C5.15285 12.9771 5.31398 13.0553 5.50604 13.1855C5.69809 13.3157 5.85597 13.485 5.97967 13.6933C6.12941 13.9602 6.31007 14.1637 6.52166 14.3036C6.73325 14.4436 6.94647 14.5136 7.16131 14.5136C7.37615 14.5136 7.5617 14.4973 7.71795 14.4648C7.8742 14.4322 8.02069 14.3834 8.1574 14.3183C8.216 13.8821 8.3755 13.5468 8.63592 13.3124C8.26483 13.2734 7.93117 13.2148 7.63494 13.1367C7.33872 13.0585 7.03273 12.9316 6.71697 12.7558C6.40122 12.58 6.13918 12.3619 5.93084 12.1015C5.72251 11.8411 5.55161 11.4993 5.41815 11.0761C5.28468 10.6529 5.21795 10.1646 5.21795 9.61126C5.21795 8.8235 5.47511 8.15293 5.98944 7.59954C5.74855 7.00709 5.77134 6.34303 6.05779 5.60735C6.2466 5.54876 6.52655 5.59271 6.89764 5.73919C7.26873 5.88567 7.54054 6.011 7.71307 6.11517C7.88559 6.21933 8.02394 6.30722 8.12811 6.37884C8.73358 6.20957 9.35858 6.12493 10.0031 6.12493C10.6476 6.12493 11.2726 6.20957 11.8781 6.37884L12.2492 6.14446C12.5031 5.98821 12.8026 5.84498 13.1476 5.71478C13.4927 5.58457 13.7564 5.54876 13.9387 5.60735C14.2316 6.34303 14.2577 7.00709 14.0168 7.59954C14.5311 8.15293 14.7883 8.8235 14.7883 9.61126C14.7883 10.1646 14.7215 10.6546 14.5881 11.081C14.4546 11.5074 14.2821 11.8492 14.0705 12.1064C13.8589 12.3635 13.5952 12.58 13.2795 12.7558C12.9637 12.9316 12.6577 13.0585 12.3615 13.1367C12.0653 13.2148 11.7316 13.2734 11.3605 13.3124C11.6991 13.6054 11.8683 14.0676 11.8683 14.6992V17.0331C11.8683 17.1438 11.8846 17.2333 11.9172 17.3017C11.9497 17.3701 12.0018 17.4173 12.0734 17.4433C12.145 17.4693 12.2085 17.4856 12.2639 17.4921ZM6.35076 14.455C6.29868 14.5136 6.23358 14.5038 6.15545 14.4257C6.07082 14.3541 6.05779 14.2923 6.11639 14.2402C6.16847 14.1816 6.23358 14.1913 6.3117 14.2695C6.38983 14.3411 6.40285 14.4029 6.35076 14.455ZM5.94061 13.8593C5.9992 13.9374 5.9992 13.9993 5.94061 14.0449C5.88852 14.0839 5.83319 14.0611 5.77459 13.9765C5.716 13.8919 5.716 13.8333 5.77459 13.8007C5.83319 13.7551 5.88852 13.7747 5.94061 13.8593ZM5.3449 13.2734C5.31235 13.3189 5.27003 13.3255 5.21795 13.2929C5.15285 13.2603 5.13006 13.2213 5.14959 13.1757C5.16912 13.1432 5.21144 13.1367 5.27654 13.1562C5.34165 13.1887 5.36444 13.2278 5.3449 13.2734ZM5.64764 13.6054C5.60858 13.651 5.55649 13.6412 5.49139 13.5761C5.43279 13.5045 5.42628 13.4524 5.47186 13.4199C5.51092 13.3808 5.563 13.3906 5.62811 13.4492C5.6867 13.5208 5.69321 13.5728 5.64764 13.6054ZM6.9074 14.6992C6.88136 14.7773 6.81951 14.7968 6.72186 14.7577C6.61118 14.7317 6.56886 14.6829 6.5949 14.6113C6.62095 14.5396 6.6828 14.5169 6.78045 14.5429C6.88462 14.5755 6.92694 14.6275 6.9074 14.6992ZM7.52264 14.748C7.52264 14.8196 7.47056 14.8554 7.36639 14.8554C7.25571 14.8684 7.20037 14.8326 7.20037 14.748C7.20037 14.6764 7.25246 14.6406 7.35662 14.6406C7.4673 14.6275 7.52264 14.6633 7.52264 14.748ZM8.08905 14.6503C8.10207 14.7154 8.05649 14.761 7.95233 14.787C7.84816 14.8131 7.78957 14.787 7.77655 14.7089C7.76352 14.6308 7.8091 14.582 7.91326 14.5624C8.01743 14.5494 8.07602 14.5787 8.08905 14.6503Z" fill="url(#paint0_linear_3049_8815)"/>
<path fill-rule="evenodd" clip-rule="evenodd" d="M12.2639 17.4921C12.3192 17.4986 12.3989 17.5019 12.5031 17.5019H7.50311C7.64634 17.5019 7.75376 17.497 7.82537 17.4872C7.89699 17.4775 7.9686 17.4352 8.04022 17.3603C8.11183 17.2854 8.14764 17.1764 8.14764 17.0331C8.14764 17.0136 8.14601 16.7923 8.14276 16.3691C8.1395 15.9459 8.13787 15.6106 8.13787 15.3632L7.91326 15.4023C7.77003 15.4283 7.58937 15.4397 7.37127 15.4365C7.15317 15.4332 6.92694 15.4104 6.69256 15.3681C6.45819 15.3258 6.24009 15.2281 6.03826 15.0751C5.83644 14.9221 5.69321 14.7219 5.60858 14.4745L5.51092 14.2499C5.44582 14.1002 5.34328 13.9342 5.2033 13.7519C5.06333 13.5696 4.92173 13.4459 4.7785 13.3808L4.71014 13.332C4.66457 13.2994 4.62225 13.2603 4.58319 13.2148C4.54412 13.1692 4.51483 13.1236 4.49529 13.0781C4.47576 13.0325 4.49204 12.995 4.54412 12.9658C4.59621 12.9365 4.69061 12.9218 4.82733 12.9218L5.02264 12.9511C5.15285 12.9771 5.31398 13.0553 5.50604 13.1855C5.69809 13.3157 5.85597 13.485 5.97967 13.6933C6.12941 13.9602 6.31007 14.1637 6.52166 14.3036C6.73325 14.4436 6.94647 14.5136 7.16131 14.5136C7.37615 14.5136 7.5617 14.4973 7.71795 14.4648C7.8742 14.4322 8.02069 14.3834 8.1574 14.3183C8.216 13.8821 8.3755 13.5468 8.63592 13.3124C8.26483 13.2734 7.93117 13.2148 7.63494 13.1367C7.33872 13.0585 7.03273 12.9316 6.71697 12.7558C6.40122 12.58 6.13918 12.3619 5.93084 12.1015C5.72251 11.8411 5.55161 11.4993 5.41815 11.0761C5.28468 10.6529 5.21795 10.1646 5.21795 9.61126C5.21795 8.8235 5.47511 8.15293 5.98944 7.59954C5.74855 7.00709 5.77134 6.34303 6.05779 5.60735C6.2466 5.54876 6.52655 5.59271 6.89764 5.73919C7.26873 5.88567 7.54054 6.011 7.71307 6.11517C7.88559 6.21933 8.02394 6.30722 8.12811 6.37884C8.73358 6.20957 9.35858 6.12493 10.0031 6.12493C10.6476 6.12493 11.2726 6.20957 11.8781 6.37884L12.2492 6.14446C12.5031 5.98821 12.8026 5.84498 13.1476 5.71478C13.4927 5.58457 13.7564 5.54876 13.9387 5.60735C14.2316 6.34303 14.2577 7.00709 14.0168 7.59954C14.5311 8.15293 14.7883 8.8235 14.7883 9.61126C14.7883 10.1646 14.7215 10.6546 14.5881 11.081C14.4546 11.5074 14.2821 11.8492 14.0705 12.1064C13.8589 12.3635 13.5952 12.58 13.2795 12.7558C12.9637 12.9316 12.6577 13.0585 12.3615 13.1367C12.0653 13.2148 11.7316 13.2734 11.3605 13.3124C11.6991 13.6054 11.8683 14.0676 11.8683 14.6992V17.0331C11.8683 17.1438 11.8846 17.2333 11.9172 17.3017C11.9497 17.3701 12.0018 17.4173 12.0734 17.4433C12.145 17.4693 12.2085 17.4856 12.2639 17.4921ZM6.35076 14.455C6.29868 14.5136 6.23358 14.5038 6.15545 14.4257C6.07082 14.3541 6.05779 14.2923 6.11639 14.2402C6.16847 14.1816 6.23358 14.1913 6.3117 14.2695C6.38983 14.3411 6.40285 14.4029 6.35076 14.455ZM5.94061 13.8593C5.9992 13.9374 5.9992 13.9993 5.94061 14.0449C5.88852 14.0839 5.83319 14.0611 5.77459 13.9765C5.716 13.8919 5.716 13.8333 5.77459 13.8007C5.83319 13.7551 5.88852 13.7747 5.94061 13.8593ZM5.3449 13.2734C5.31235 13.3189 5.27003 13.3255 5.21795 13.2929C5.15285 13.2603 5.13006 13.2213 5.14959 13.1757C5.16912 13.1432 5.21144 13.1367 5.27654 13.1562C5.34165 13.1887 5.36444 13.2278 5.3449 13.2734ZM5.64764 13.6054C5.60858 13.651 5.55649 13.6412 5.49139 13.5761C5.43279 13.5045 5.42628 13.4524 5.47186 13.4199C5.51092 13.3808 5.563 13.3906 5.62811 13.4492C5.6867 13.5208 5.69321 13.5728 5.64764 13.6054ZM6.9074 14.6992C6.88136 14.7773 6.81951 14.7968 6.72186 14.7577C6.61118 14.7317 6.56886 14.6829 6.5949 14.6113C6.62095 14.5396 6.6828 14.5169 6.78045 14.5429C6.88462 14.5755 6.92694 14.6275 6.9074 14.6992ZM7.52264 14.748C7.52264 14.8196 7.47056 14.8554 7.36639 14.8554C7.25571 14.8684 7.20037 14.8326 7.20037 14.748C7.20037 14.6764 7.25246 14.6406 7.35662 14.6406C7.4673 14.6275 7.52264 14.6633 7.52264 14.748ZM8.08905 14.6503C8.10207 14.7154 8.05649 14.761 7.95233 14.787C7.84816 14.8131 7.78957 14.787 7.77655 14.7089C7.76352 14.6308 7.8091 14.582 7.91326 14.5624C8.01743 14.5494 8.07602 14.5787 8.08905 14.6503Z" fill="url(#paint1_linear_3049_8815)"/>
<path d="M6.34766 14.4534C6.29557 14.512 6.23047 14.5022 6.15234 14.4241C6.06771 14.3525 6.05469 14.2906 6.11328 14.2385C6.16536 14.1799 6.23047 14.1897 6.30859 14.2678C6.38672 14.3394 6.39974 14.4013 6.34766 14.4534ZM5.9375 13.8577C5.99609 13.9358 5.99609 13.9976 5.9375 14.0432C5.88542 14.0823 5.83008 14.0595 5.77148 13.9749C5.71289 13.8902 5.71289 13.8316 5.77148 13.7991C5.83008 13.7535 5.88542 13.773 5.9375 13.8577ZM5.3418 13.2717C5.30924 13.3173 5.26693 13.3238 5.21484 13.2913C5.14974 13.2587 5.12695 13.2196 5.14648 13.1741C5.16602 13.1415 5.20833 13.135 5.27344 13.1545C5.33854 13.1871 5.36133 13.2262 5.3418 13.2717ZM5.64453 13.6038C5.60547 13.6493 5.55339 13.6396 5.48828 13.5745C5.42969 13.5028 5.42318 13.4508 5.46875 13.4182C5.50781 13.3792 5.5599 13.3889 5.625 13.4475C5.68359 13.5191 5.6901 13.5712 5.64453 13.6038ZM6.9043 14.6975C6.87826 14.7756 6.81641 14.7952 6.71875 14.7561C6.60807 14.7301 6.56576 14.6812 6.5918 14.6096C6.61784 14.538 6.67969 14.5152 6.77734 14.5413C6.88151 14.5738 6.92383 14.6259 6.9043 14.6975ZM7.51953 14.7463C7.51953 14.818 7.46745 14.8538 7.36328 14.8538C7.2526 14.8668 7.19727 14.831 7.19727 14.7463C7.19727 14.6747 7.24935 14.6389 7.35352 14.6389C7.46419 14.6259 7.51953 14.6617 7.51953 14.7463ZM8.08594 14.6487C8.09896 14.7138 8.05339 14.7594 7.94922 14.7854C7.84505 14.8114 7.78646 14.7854 7.77344 14.7073C7.76042 14.6292 7.80599 14.5803 7.91016 14.5608C8.01432 14.5478 8.07292 14.5771 8.08594 14.6487Z" fill="url(#paint2_linear_3049_8815)"/>
<path fill-rule="evenodd" clip-rule="evenodd" d="M17.5 6.50012V13.5001C17.5 15.5001 15.5 17.5001 13.5 17.5001C12.5 17.5001 12.5 17.5002 12.5 17.5002C12.3958 17.5002 12.3161 17.497 12.2607 17.4905C12.2054 17.484 12.1419 17.4677 12.0703 17.4417C11.9987 17.4156 11.9466 17.3684 11.9141 17.3C11.8815 17.2317 11.8652 17.1422 11.8652 17.0315V14.6975C11.8652 14.066 11.696 13.6038 11.3574 13.3108C11.7285 13.2717 12.0622 13.2131 12.3584 13.135C12.6546 13.0569 12.9606 12.9299 13.2764 12.7542C13.5921 12.5784 13.8558 12.3619 14.0674 12.1047C14.279 11.8476 14.4515 11.5058 14.585 11.0793C14.7184 10.6529 14.7852 10.163 14.7852 9.60962C14.7852 8.82186 14.528 8.15129 14.0137 7.5979C14.2546 7.00545 14.2285 6.34139 13.9355 5.60571C13.7533 5.54712 13.4896 5.58293 13.1445 5.71314C12.7995 5.84334 12.5 5.98657 12.2461 6.14282L11.875 6.3772C11.2695 6.20793 10.6445 6.12329 10 6.12329C9.35547 6.12329 8.73047 6.20793 8.125 6.3772C8.02083 6.30558 7.88249 6.21769 7.70996 6.11353C7.53744 6.00936 7.26562 5.88403 6.89453 5.73755C6.52344 5.59106 6.24349 5.54712 6.05469 5.60571C5.76823 6.34139 5.74544 7.00545 5.98633 7.5979C5.47201 8.15129 5.21484 8.82186 5.21484 9.60962C5.21484 10.163 5.28158 10.6513 5.41504 11.0745C5.5485 11.4976 5.7194 11.8394 5.92773 12.0999C6.13607 12.3603 6.39811 12.5784 6.71387 12.7542C7.02962 12.9299 7.33561 13.0569 7.63184 13.135C7.92806 13.2131 8.26172 13.2717 8.63281 13.3108C8.3724 13.5452 8.21289 13.8805 8.1543 14.3167C8.01758 14.3818 7.87109 14.4306 7.71484 14.4631C7.55859 14.4957 7.37305 14.512 7.1582 14.512C6.94336 14.512 6.73014 14.442 6.51855 14.302C6.30697 14.162 6.1263 13.9586 5.97656 13.6917C5.85286 13.4833 5.69499 13.314 5.50293 13.1838C5.31087 13.0536 5.14974 12.9755 5.01953 12.9495L4.82422 12.9202C4.6875 12.9202 4.5931 12.9348 4.54102 12.9641C4.48893 12.9934 4.47266 13.0308 4.49219 13.0764C4.51172 13.122 4.54102 13.1676 4.58008 13.2131C4.61914 13.2587 4.66146 13.2978 4.70703 13.3303L4.77539 13.3792C4.91862 13.4443 5.06022 13.568 5.2002 13.7502C5.34017 13.9325 5.44271 14.0986 5.50781 14.2483L5.60547 14.4729C5.6901 14.7203 5.83333 14.9205 6.03516 15.0735C6.23698 15.2265 6.45508 15.3241 6.68945 15.3665C6.92383 15.4088 7.15006 15.4316 7.36816 15.4348C7.58626 15.4381 7.76693 15.4267 7.91016 15.4006L8.13477 15.3616C8.13477 15.609 8.13639 15.9443 8.13965 16.3674C8.1429 16.7906 8.14453 17.012 8.14453 17.0315C8.14453 17.1747 8.10872 17.2838 8.03711 17.3586C7.96549 17.4335 7.89388 17.4758 7.82227 17.4856C7.75065 17.4954 7.64323 17.5002 7.5 17.5002C7.5 17.5002 8.41992 17.5144 6.5 17.5C4.58008 17.4856 2.5 15.7214 2.5 13.3792C2.5 11.0369 2.5 6.3772 2.5 6.3772C2.5 4.50012 4.5 2.50012 6.38805 2.50024L10.5577 2.5002L13.5 2.50012C16 2.50012 17.5 5 17.5 6.50012Z" fill="url(#paint3_linear_3049_8815)"/>
<path d="M13.3333 2.91667C15.4008 2.91667 17.0833 4.59917 17.0833 6.66667V13.3333C17.0833 15.4008 15.4008 17.0833 13.3333 17.0833H6.66667C4.59917 17.0833 2.91667 15.4008 2.91667 13.3333V6.66667C2.91667 4.59917 4.59917 2.91667 6.66667 2.91667H13.3333ZM13.3333 2.5H6.66667C4.36583 2.5 2.5 4.36583 2.5 6.66667V13.3333C2.5 15.6342 4.36583 17.5 6.66667 17.5H13.3333C15.6342 17.5 17.5 15.6342 17.5 13.3333V6.66667C17.5 4.36583 15.6342 2.5 13.3333 2.5Z" fill="url(#paint4_linear_3049_8815)"/>
<defs>
<linearGradient id="paint0_linear_3049_8815" x1="6.42276" y1="5.41174" x2="14.7025" y2="11.5699" gradientUnits="userSpaceOnUse">
<stop stop-color="white" stop-opacity="0.7"/>
<stop offset="0.5188" stop-color="white" stop-opacity="0.45"/>
<stop offset="0.9998" stop-color="white" stop-opacity="0.55"/>
</linearGradient>
<linearGradient id="paint1_linear_3049_8815" x1="4.75799" y1="5.83457" x2="15.4133" y2="15.5529" gradientUnits="userSpaceOnUse">
<stop stop-color="white" stop-opacity="0.6"/>
<stop offset="1" stop-color="white" stop-opacity="0.3"/>
</linearGradient>
<linearGradient id="paint2_linear_3049_8815" x1="2.89417" y1="2.82032" x2="16.3378" y2="17.0111" gradientUnits="userSpaceOnUse">
<stop stop-color="white" stop-opacity="0.6"/>
<stop offset="1" stop-color="white" stop-opacity="0.3"/>
</linearGradient>
<linearGradient id="paint3_linear_3049_8815" x1="2.89417" y1="2.82032" x2="16.3378" y2="17.0111" gradientUnits="userSpaceOnUse">
<stop stop-color="white" stop-opacity="0.6"/>
<stop offset="1" stop-color="white" stop-opacity="0.3"/>
</linearGradient>
<linearGradient id="paint4_linear_3049_8815" x1="3.72042" y1="3.72042" x2="16.2796" y2="16.2796" gradientUnits="userSpaceOnUse">
<stop stop-color="white" stop-opacity="0.6"/>
<stop offset="0.4927" stop-color="white" stop-opacity="0"/>
<stop offset="0.9971" stop-color="white" stop-opacity="0.3"/>
</linearGradient>
</defs>
</svg>
