<svg width="20" height="20" viewBox="0 0 20 20" fill="none" xmlns="http://www.w3.org/2000/svg">
<path d="M13.3333 17.5H6.66667C4.36583 17.5 2.5 15.6342 2.5 13.3333V6.66667C2.5 4.36583 4.36583 2.5 6.66667 2.5H13.3333C15.6342 2.5 17.5 4.36583 17.5 6.66667V13.3333C17.5 15.6342 15.6342 17.5 13.3333 17.5Z" fill="url(#paint0_linear_301_1573)"/>
<path d="M13.3333 2.91667C15.4008 2.91667 17.0833 4.59917 17.0833 6.66667V13.3333C17.0833 15.4008 15.4008 17.0833 13.3333 17.0833H6.66667C4.59917 17.0833 2.91667 15.4008 2.91667 13.3333V6.66667C2.91667 4.59917 4.59917 2.91667 6.66667 2.91667H13.3333ZM13.3333 2.5H6.66667C4.36583 2.5 2.5 4.36583 2.5 6.66667V13.3333C2.5 15.6342 4.36583 17.5 6.66667 17.5H13.3333C15.6342 17.5 17.5 15.6342 17.5 13.3333V6.66667C17.5 4.36583 15.6342 2.5 13.3333 2.5Z" fill="url(#paint1_linear_301_1573)"/>
<path d="M9.99967 5.83331C7.69884 5.83331 5.83301 7.69915 5.83301 9.99998C5.83301 12.3008 7.69884 14.1666 9.99967 14.1666C12.3005 14.1666 14.1663 12.3008 14.1663 9.99998C14.1663 7.69915 12.3005 5.83331 9.99967 5.83331ZM9.99967 12.5C8.61884 12.5 7.49967 11.3808 7.49967 9.99998C7.49967 8.61915 8.61884 7.49998 9.99967 7.49998C11.3805 7.49998 12.4997 8.61915 12.4997 9.99998C12.4997 11.3808 11.3805 12.5 9.99967 12.5Z" fill="url(#paint2_linear_301_1573)"/>
<path d="M14.1663 6.66667C14.6266 6.66667 14.9997 6.29357 14.9997 5.83333C14.9997 5.3731 14.6266 5 14.1663 5C13.7061 5 13.333 5.3731 13.333 5.83333C13.333 6.29357 13.7061 6.66667 14.1663 6.66667Z" fill="url(#paint3_linear_301_1573)"/>
<defs>
<linearGradient id="paint0_linear_301_1573" x1="3.72042" y1="3.72042" x2="16.2796" y2="16.2796" gradientUnits="userSpaceOnUse">
<stop stop-color="white" stop-opacity="0.6"/>
<stop offset="1" stop-color="white" stop-opacity="0.3"/>
</linearGradient>
<linearGradient id="paint1_linear_301_1573" x1="3.72042" y1="3.72042" x2="16.2796" y2="16.2796" gradientUnits="userSpaceOnUse">
<stop stop-color="white" stop-opacity="0.6"/>
<stop offset="0.4927" stop-color="white" stop-opacity="0"/>
<stop offset="0.9971" stop-color="white" stop-opacity="0.3"/>
</linearGradient>
<linearGradient id="paint2_linear_301_1573" x1="7.05342" y1="7.05373" x2="12.9459" y2="12.9462" gradientUnits="userSpaceOnUse">
<stop stop-color="white" stop-opacity="0.7"/>
<stop offset="0.5188" stop-color="white" stop-opacity="0.45"/>
<stop offset="0.9998" stop-color="white" stop-opacity="0.55"/>
</linearGradient>
<linearGradient id="paint3_linear_301_1573" x1="13.5771" y1="5.24408" x2="14.7556" y2="6.42258" gradientUnits="userSpaceOnUse">
<stop stop-color="white" stop-opacity="0.7"/>
<stop offset="0.5188" stop-color="white" stop-opacity="0.45"/>
<stop offset="0.9998" stop-color="white" stop-opacity="0.55"/>
</linearGradient>
</defs>
</svg>
