<svg width="20" height="20" viewBox="0 0 20 20" fill="none" xmlns="http://www.w3.org/2000/svg">
<path d="M15 17.5H5C3.61917 17.5 2.5 16.3808 2.5 15V5C2.5 3.61917 3.61917 2.5 5 2.5H15C16.3808 2.5 17.5 3.61917 17.5 5V15C17.5 16.3808 16.3808 17.5 15 17.5Z" fill="url(#paint0_linear_301_1420)"/>
<path d="M15 2.91667C16.1483 2.91667 17.0833 3.85083 17.0833 5V15C17.0833 16.1492 16.1483 17.0833 15 17.0833H5C3.85167 17.0833 2.91667 16.1492 2.91667 15V5C2.91667 3.85083 3.85167 2.91667 5 2.91667H15ZM15 2.5H5C3.61917 2.5 2.5 3.61917 2.5 5V15C2.5 16.3808 3.61917 17.5 5 17.5H15C16.3808 17.5 17.5 16.3808 17.5 15V5C17.5 3.61917 16.3808 2.5 15 2.5Z" fill="url(#paint1_linear_301_1420)"/>
<path d="M7.49984 14.1667H5.39734V8.33333H7.49984V14.1667ZM6.41151 7.26416C5.76901 7.26416 5.33984 6.83583 5.33984 6.26416C5.33984 5.69249 5.76818 5.26416 6.48234 5.26416C7.12484 5.26416 7.55401 5.69249 7.55401 6.26416C7.55401 6.83583 7.12568 7.26416 6.41151 7.26416ZM14.9998 14.1667H12.9648V10.9783C12.9648 10.0967 12.4223 9.89333 12.219 9.89333C12.0157 9.89333 11.3373 10.0292 11.3373 10.9783C11.3373 11.1142 11.3373 14.1667 11.3373 14.1667H9.23484V8.33333H11.3373V9.14749C11.6082 8.67249 12.1507 8.33333 13.1682 8.33333C14.1857 8.33333 14.9998 9.14749 14.9998 10.9783V14.1667Z" fill="url(#paint2_linear_301_1420)"/>
<defs>
<linearGradient id="paint0_linear_301_1420" x1="3.23225" y1="3.23225" x2="16.7677" y2="16.7677" gradientUnits="userSpaceOnUse">
<stop stop-color="white" stop-opacity="0.6"/>
<stop offset="1" stop-color="white" stop-opacity="0.3"/>
</linearGradient>
<linearGradient id="paint1_linear_301_1420" x1="3.23225" y1="3.23225" x2="16.7677" y2="16.7677" gradientUnits="userSpaceOnUse">
<stop stop-color="white" stop-opacity="0.6"/>
<stop offset="0.4927" stop-color="white" stop-opacity="0"/>
<stop offset="0.9971" stop-color="white" stop-opacity="0.3"/>
</linearGradient>
<linearGradient id="paint2_linear_301_1420" x1="4.78309" y1="6.40849" x2="13.7705" y2="15.396" gradientUnits="userSpaceOnUse">
<stop stop-color="white" stop-opacity="0.7"/>
<stop offset="0.5188" stop-color="white" stop-opacity="0.45"/>
<stop offset="0.9998" stop-color="white" stop-opacity="0.55"/>
</linearGradient>
</defs>
</svg>
