<svg width="16" height="16" viewBox="0 0 16 16" fill="none" xmlns="http://www.w3.org/2000/svg">
<path d="M13.8333 6.33333C13.6017 6.33333 11.7942 6.33333 9.66667 6.33333C9.66667 4.20583 9.66667 2.39833 9.66667 2.16667C9.66667 1.24583 8.92083 0.5 8 0.5C7.07917 0.5 6.33333 1.24583 6.33333 2.16667C6.33333 2.39833 6.33333 4.20583 6.33333 6.33333C4.20583 6.33333 2.39833 6.33333 2.16667 6.33333C1.24583 6.33333 0.5 7.07917 0.5 8C0.5 8.92083 1.24583 9.66667 2.16667 9.66667C2.23417 9.66667 4.1075 9.66667 6.33333 9.66667C6.33333 11.7942 6.33333 13.6017 6.33333 13.8333C6.33333 14.7542 7.07917 15.5 8 15.5C8.92083 15.5 9.66667 14.7542 9.66667 13.8333C9.66667 13.6017 9.66667 11.7942 9.66667 9.66667C11.8925 9.66667 13.7658 9.66667 13.8333 9.66667C14.7542 9.66667 15.5 8.92083 15.5 8C15.5 7.07917 14.7542 6.33333 13.8333 6.33333Z" fill="url(#paint0_linear_296_3927)"/>
<path d="M8 0.916667C8.68917 0.916667 9.25 1.4775 9.25 2.16667V6.33333V6.75H9.66667H13.8333C14.5225 6.75 15.0833 7.31083 15.0833 8C15.0833 8.68917 14.5225 9.25 13.8333 9.25H9.66667H9.25V9.66667V13.8333C9.25 14.5225 8.68917 15.0833 8 15.0833C7.31083 15.0833 6.75 14.5225 6.75 13.8333V9.66667V9.25H6.33333H2.16667C1.4775 9.25 0.916667 8.68917 0.916667 8C0.916667 7.31083 1.4775 6.75 2.16667 6.75H6.33333H6.75V6.33333V2.16667C6.75 1.4775 7.31083 0.916667 8 0.916667ZM8 0.5C7.07917 0.5 6.33333 1.24583 6.33333 2.16667C6.33333 2.39833 6.33333 4.20583 6.33333 6.33333C4.20583 6.33333 2.39833 6.33333 2.16667 6.33333C1.24583 6.33333 0.5 7.07917 0.5 8C0.5 8.92083 1.24583 9.66667 2.16667 9.66667C2.23417 9.66667 4.1075 9.66667 6.33333 9.66667C6.33333 11.7942 6.33333 13.6017 6.33333 13.8333C6.33333 14.7542 7.07917 15.5 8 15.5C8.92083 15.5 9.66667 14.7542 9.66667 13.8333C9.66667 13.6017 9.66667 11.7942 9.66667 9.66667C11.8925 9.66667 13.7658 9.66667 13.8333 9.66667C14.7542 9.66667 15.5 8.92083 15.5 8C15.5 7.07917 14.7542 6.33333 13.8333 6.33333C13.6017 6.33333 11.7942 6.33333 9.66667 6.33333C9.66667 4.20583 9.66667 2.39833 9.66667 2.16667C9.66667 1.24583 8.92083 0.5 8 0.5Z" fill="url(#paint1_linear_296_3927)"/>
<defs>
<linearGradient id="paint0_linear_296_3927" x1="3.90483" y1="3.90483" x2="12.0952" y2="12.0952" gradientUnits="userSpaceOnUse">
<stop stop-color="white" stop-opacity="0.6"/>
<stop offset="1" stop-color="white" stop-opacity="0.3"/>
</linearGradient>
<linearGradient id="paint1_linear_296_3927" x1="0.5" y1="8" x2="15.5" y2="8" gradientUnits="userSpaceOnUse">
<stop stop-color="white" stop-opacity="0.6"/>
<stop offset="0.4927" stop-color="white" stop-opacity="0"/>
<stop offset="0.9971" stop-color="white" stop-opacity="0.3"/>
</linearGradient>
</defs>
</svg>
